<svg width="20" height="21" viewBox="0 0 20 21" fill="none"
  xmlns="http://www.w3.org/2000/svg">
  <path d="M17.013 12.2565L16.1283 12.7227V12.7227L17.013 12.2565ZM13.5317 5.64995L14.4164 5.18378V5.18378L13.5317 5.64995ZM6.47086 5.64996L5.58617 5.18378V5.18378L6.47086 5.64996ZM2.9896 12.2565L3.87429 12.7227L2.9896 12.2565ZM11.0585 2.06933L11.4689 1.15742V1.15742L11.0585 2.06933ZM8.94414 2.06933L9.35453 2.98124L9.35453 2.98124L8.94414 2.06933ZM17.2915 17.2542L17.8444 18.0874V18.0874L17.2915 17.2542ZM18.318 15.6781L17.3299 15.5243L18.318 15.6781ZM2.71113 17.2542L2.15817 18.0874H2.15817L2.71113 17.2542ZM1.68457 15.6781L2.67267 15.5243L1.68457 15.6781ZM11.0013 7.67235C10.9988 7.12007 10.5491 6.67437 9.99682 6.67685C9.44454 6.67933 8.99883 7.12905 9.00131 7.68133L10.0013 7.67684L11.0013 7.67235ZM9.02001 11.8479C9.02249 12.4002 9.47221 12.8459 10.0245 12.8434C10.5768 12.8409 11.0225 12.3912 11.02 11.8389L10.02 11.8434L9.02001 11.8479ZM11.0013 14.3435C11.0013 13.7912 10.5536 13.3435 10.0013 13.3435C9.44902 13.3435 9.0013 13.7912 9.0013 14.3435H10.0013H11.0013ZM9.0013 14.3518C9.0013 14.9041 9.44902 15.3518 10.0013 15.3518C10.5536 15.3518 11.0013 14.9041 11.0013 14.3518H10.0013H9.0013ZM6.52004 17.6768V18.6768H13.4826V17.6768V16.6768H6.52004V17.6768ZM17.013 12.2565L17.8977 11.7903L14.4164 5.18378L13.5317 5.64995L12.6471 6.11613L16.1283 12.7227L17.013 12.2565ZM6.47086 5.64996L5.58617 5.18378L2.10491 11.7903L2.9896 12.2565L3.87429 12.7227L7.35555 6.11614L6.47086 5.64996ZM13.5317 5.64995L14.4164 5.18378C13.8578 4.12356 13.4066 3.26501 12.9947 2.63408C12.5883 2.01169 12.1236 1.45206 11.4689 1.15742L11.0585 2.06933L10.6481 2.98124C10.7622 3.03259 10.9659 3.18506 11.3199 3.72739C11.6684 4.26117 12.0694 5.01993 12.6471 6.11613L13.5317 5.64995ZM6.47086 5.64996L7.35555 6.11614C7.93318 5.01993 8.33419 4.26117 8.68266 3.72739C9.03671 3.18506 9.24042 3.03259 9.35453 2.98124L8.94414 2.06933L8.53376 1.15742C7.87904 1.45206 7.41426 2.01169 7.00795 2.63408C6.59605 3.26501 6.14483 4.12356 5.58617 5.18378L6.47086 5.64996ZM11.0585 2.06933L11.4689 1.15742C10.5388 0.738869 9.4638 0.738869 8.53376 1.15742L8.94414 2.06933L9.35453 2.98124C9.7626 2.79759 10.24 2.79759 10.6481 2.98124L11.0585 2.06933ZM13.4826 17.6768V18.6768C14.5214 18.6768 15.366 18.6777 16.0278 18.6203C16.686 18.5631 17.3139 18.4395 17.8444 18.0874L17.2915 17.2542L16.7385 16.421C16.6323 16.4915 16.4131 16.5793 15.8547 16.6278C15.3 16.6759 14.5585 16.6768 13.4826 16.6768V17.6768ZM17.013 12.2565L16.1283 12.7227C16.6107 13.638 16.9381 14.2618 17.138 14.7475C17.339 15.2356 17.344 15.434 17.3299 15.5243L18.318 15.6781L19.3061 15.832C19.4057 15.1928 19.231 14.5778 18.9875 13.9862C18.7429 13.3921 18.3611 12.6697 17.8977 11.7903L17.013 12.2565ZM17.2915 17.2542L17.8444 18.0874C18.6252 17.5693 19.162 16.7574 19.3061 15.832L18.318 15.6781L17.3299 15.5243C17.2757 15.8728 17.0699 16.2011 16.7385 16.421L17.2915 17.2542ZM6.52004 17.6768V16.6768C5.44415 16.6768 4.70265 16.6759 4.14789 16.6278C3.58953 16.5793 3.37034 16.4915 3.26409 16.421L2.71113 17.2542L2.15817 18.0874C2.68874 18.4395 3.31663 18.5631 3.97484 18.6203C4.63665 18.6777 5.4812 18.6768 6.52004 18.6768V17.6768ZM2.9896 12.2565L2.10491 11.7903C1.6415 12.6697 1.25967 13.3921 1.01512 13.9862C0.77159 14.5778 0.596949 15.1928 0.696479 15.832L1.68457 15.6781L2.67267 15.5243C2.65861 15.434 2.66361 15.2356 2.86456 14.7475C3.06448 14.2618 3.39195 13.638 3.87429 12.7227L2.9896 12.2565ZM2.71113 17.2542L3.26409 16.421C2.93268 16.2011 2.72694 15.8728 2.67267 15.5243L1.68457 15.6781L0.696479 15.832C0.840567 16.7574 1.37745 17.5693 2.15817 18.0874L2.71113 17.2542ZM10.0013 7.67684L9.00131 7.68133L9.02001 11.8479L10.02 11.8434L11.02 11.8389L11.0013 7.67235L10.0013 7.67684ZM10.0013 14.3435H9.0013V14.3518H10.0013H11.0013V14.3435H10.0013Z" fill="currentColor"/>
</svg>
