<svg width="24" height="32" viewBox="0 0 24 32" fill="none" xmlns="http://www.w3.org/2000/svg">
<path d="M19.8749 22.25H7.46236C6.86236 22.25 6.37486 21.65 6.33736 20.95L5.62486 6.30003C5.58736 5.50003 5.24986 4.85003 4.72486 4.50003L3.59986 3.85003C3.29986 3.70003 2.99986 3.85003 2.84986 4.25003C2.69986 4.65003 2.84986 5.05003 3.14986 5.25003L4.23736 5.90003C4.38736 6.00003 4.49986 6.20003 4.49986 6.45003L5.17486 21.1C5.24986 22.6 6.26236 23.8 7.42486 23.8H19.8749C20.1749 23.8 20.4374 23.45 20.4374 23.05C20.4374 22.65 20.1749 22.25 19.8749 22.25Z" fill="currentColor"/>
<path d="M20.7371 8.3C20.3996 7.8 19.9121 7.5 19.3871 7.5H7.91211C7.61211 7.5 7.34961 7.85 7.34961 8.25C7.34961 8.65 7.61211 9 7.91211 9H19.3871C19.5746 9 19.7621 9.1 19.8746 9.3C19.9871 9.5 20.0621 9.75 20.0621 10L19.1621 16.6V16.65C19.1246 17.1 18.8621 17.4 18.5246 17.45L8.66211 18.45C8.36211 18.5 8.13711 18.85 8.13711 19.25C8.17461 19.65 8.39961 19.95 8.69961 19.95H8.73711L18.5621 18.95C19.4246 18.85 20.1371 18 20.2121 16.85L21.1121 10.2V10.15C21.2246 9.5 21.0746 8.8 20.7371 8.3Z" fill="currentColor"/>
<path d="M5.84961 26.75C5.84961 27.2141 5.98789 27.6592 6.23403 27.9874C6.48017 28.3156 6.81401 28.5 7.16211 28.5C7.51021 28.5 7.84405 28.3156 8.09019 27.9874C8.33633 27.6592 8.47461 27.2141 8.47461 26.75C8.47461 26.2859 8.33633 25.8408 8.09019 25.5126C7.84405 25.1844 7.51021 25 7.16211 25C6.81401 25 6.48017 25.1844 6.23403 25.5126C5.98789 25.8408 5.84961 26.2859 5.84961 26.75Z" fill="currentColor"/>
<path d="M16.3496 26.75C16.3496 27.2141 16.4879 27.6592 16.734 27.9874C16.9802 28.3156 17.314 28.5 17.6621 28.5C18.0102 28.5 18.344 28.3156 18.5902 27.9874C18.8363 27.6592 18.9746 27.2141 18.9746 26.75C18.9746 26.2859 18.8363 25.8408 18.5902 25.5126C18.344 25.1844 18.0102 25 17.6621 25C17.314 25 16.9802 25.1844 16.734 25.5126C16.4879 25.8408 16.3496 26.2859 16.3496 26.75Z" fill="currentColor"/>
</svg>
