<svg width="24" height="25" viewBox="0 0 24 25" fill="none" xmlns="http://www.w3.org/2000/svg">
<mask id="path-1-inside-1_9985_40525" fill="currentColor">
<path d="M6.19984 7.54799C6.19984 7.90319 6.34084 8.24384 6.59181 8.49501C6.84277 8.74617 7.18316 8.88728 7.53808 8.88728C7.89301 8.88728 8.23339 8.74617 8.48436 8.49501C8.73533 8.24384 8.87632 7.90319 8.87632 7.54799C8.87632 7.19279 8.73533 6.85214 8.48436 6.60097C8.23339 6.34981 7.89301 6.20871 7.53808 6.20871C7.18316 6.20871 6.84277 6.34981 6.59181 6.60097C6.34084 6.85214 6.19984 7.19279 6.19984 7.54799Z"/>
<path d="M10.825 7.54799C10.825 7.72387 10.8596 7.89802 10.9269 8.06051C10.9941 8.223 11.0927 8.37065 11.217 8.49501C11.3413 8.61937 11.4888 8.71802 11.6511 8.78533C11.8135 8.85264 11.9875 8.88728 12.1633 8.88728C12.339 8.88728 12.513 8.85264 12.6754 8.78533C12.8378 8.71802 12.9853 8.61937 13.1095 8.49501C13.2338 8.37065 13.3324 8.223 13.3996 8.06051C13.4669 7.89802 13.5015 7.72387 13.5015 7.54799C13.5015 7.37211 13.4669 7.19796 13.3996 7.03547C13.3324 6.87298 13.2338 6.72534 13.1095 6.60097C12.9853 6.47661 12.8378 6.37796 12.6754 6.31065C12.513 6.24335 12.339 6.20871 12.1633 6.20871C11.9875 6.20871 11.8135 6.24335 11.6511 6.31065C11.4888 6.37796 11.3413 6.47661 11.217 6.60097C11.0927 6.72534 10.9941 6.87298 10.9269 7.03547C10.8596 7.19796 10.825 7.37211 10.825 7.54799Z"/>
<path d="M19.4948 22.7266C19.3574 22.7266 19.2203 22.6871 19.1007 22.6078L16.5788 20.9366C16.1633 21.0092 15.7395 21.046 15.315 21.046C13.5432 21.046 11.8742 20.4203 10.6151 19.2844C9.99576 18.7254 9.50864 18.073 9.16717 17.3449C8.81097 16.585 8.63031 15.7775 8.63031 14.9444C8.63031 14.1114 8.81097 13.3038 9.16717 12.544C9.50842 11.8158 9.99554 11.1632 10.6151 10.6045C11.8742 9.4683 13.5434 8.84263 15.3153 8.84263C17.0871 8.84263 18.7561 9.4683 20.0152 10.6042C20.6345 11.1632 21.1217 11.8156 21.4631 12.5437C21.8193 13.3036 22 14.1112 22 14.9442C22 15.9013 21.764 16.8176 21.299 17.6681C20.9325 18.3379 20.4251 18.9487 19.8167 19.4556L20.2001 21.9016C20.2216 22.0385 20.2028 22.1787 20.146 22.3051C20.0893 22.4315 19.997 22.5386 19.8804 22.6134C19.7654 22.6873 19.6315 22.7266 19.4948 22.7266ZM17.2617 19.6757L18.5389 20.5219L18.3696 19.4417C18.2411 19.1379 18.3375 18.7799 18.6116 18.5833C19.8579 17.6895 20.5725 16.3632 20.5725 14.9442C20.5723 12.3676 18.2141 10.2712 15.3153 10.2712C12.4164 10.2712 10.058 12.3676 10.058 14.9442C10.058 17.5208 12.4164 19.6172 15.3153 19.6172C15.7475 19.6172 16.1784 19.5701 16.5957 19.4772C16.8444 19.4219 17.094 19.5038 17.2617 19.6757Z"/>
<path d="M16.0709 13.5531C16.0709 13.8701 16.1967 14.1741 16.4207 14.3982C16.6446 14.6223 16.9484 14.7482 17.2651 14.7482C17.5818 14.7482 17.8855 14.6223 18.1095 14.3982C18.3334 14.1741 18.4592 13.8701 18.4592 13.5531C18.4592 13.2362 18.3334 12.9322 18.1095 12.7081C17.8855 12.4839 17.5818 12.358 17.2651 12.358C16.9484 12.358 16.6446 12.4839 16.4207 12.7081C16.1967 12.9322 16.0709 13.2362 16.0709 13.5531Z"/>
<path d="M12.1711 13.5531C12.1711 13.8701 12.2969 14.1741 12.5208 14.3982C12.7448 14.6223 13.0485 14.7482 13.3652 14.7482C13.6819 14.7482 13.9857 14.6223 14.2096 14.3982C14.4336 14.1741 14.5594 13.8701 14.5594 13.5531C14.5594 13.2362 14.4336 12.9322 14.2096 12.7081C13.9857 12.4839 13.6819 12.358 13.3652 12.358C13.0485 12.358 12.7448 12.4839 12.5208 12.7081C12.2969 12.9322 12.1711 13.2362 12.1711 13.5531Z"/>
<path d="M4.85469 19.0435C4.7516 19.0435 4.64974 19.0212 4.5561 18.9781C4.46247 18.9349 4.37929 18.872 4.31229 18.7936C4.24529 18.7152 4.19605 18.6232 4.16798 18.5239C4.13991 18.4246 4.13366 18.3204 4.14966 18.2185L4.62027 15.2161C3.87956 14.6118 3.26241 13.877 2.82079 13.0694C2.27612 12.0737 2 11.0009 2 9.88058C2 8.90558 2.21144 7.96004 2.62853 7.07054C3.02866 6.21696 3.59987 5.45201 4.32631 4.79643C5.80529 3.46161 7.76737 2.72656 9.85079 2.72656C11.9112 2.72656 13.8577 3.44777 15.3315 4.75759C16.0553 5.40067 16.6287 6.15246 17.0354 6.99219C17.4589 7.86652 17.6824 8.79754 17.7 9.75938C17.702 9.86981 17.6784 9.9792 17.631 10.079C17.5836 10.1787 17.5138 10.2662 17.427 10.3344C17.3402 10.4026 17.2387 10.4497 17.1307 10.472C17.0226 10.4944 16.9108 10.4913 16.8041 10.4632C16.3221 10.3359 15.8213 10.2712 15.3153 10.2712C12.4251 10.2712 10.0736 12.369 10.0736 14.9475C10.0736 15.3431 10.1294 15.7364 10.2391 16.1163C10.3027 16.3364 10.2567 16.5739 10.1158 16.7545C10.0463 16.8435 9.95666 16.9147 9.85429 16.9624C9.75193 17.01 9.63973 17.0326 9.52693 17.0283C9.1181 17.0132 8.70994 16.9687 8.30958 16.8962L5.24858 18.9248C5.13177 19.0022 4.99479 19.0435 4.85469 19.0435ZM6.0649 15.2174L5.81064 16.8391L7.61392 15.6442C7.78164 15.4652 8.03636 15.379 8.28995 15.4355C8.41708 15.4638 8.54533 15.4886 8.67447 15.51C8.65574 15.3234 8.64637 15.1359 8.64637 14.9478C8.64637 14.1147 8.82636 13.3069 9.18167 12.5469C9.52202 11.8183 10.0078 11.1654 10.6256 10.6063C11.8818 9.4692 13.5475 8.84263 15.3153 8.84263C15.6043 8.84263 15.8923 8.85982 16.1773 8.89353C15.6469 6.21138 12.9945 4.15513 9.85079 4.15513C6.30891 4.15513 3.42723 6.72366 3.42723 9.88058C3.42723 11.6223 4.30289 13.2493 5.8296 14.344C6.10795 14.5438 6.20297 14.9105 6.0649 15.2174Z"/>
</mask>
<path d="M6.19984 7.54799C6.19984 7.90319 6.34084 8.24384 6.59181 8.49501C6.84277 8.74617 7.18316 8.88728 7.53808 8.88728C7.89301 8.88728 8.23339 8.74617 8.48436 8.49501C8.73533 8.24384 8.87632 7.90319 8.87632 7.54799C8.87632 7.19279 8.73533 6.85214 8.48436 6.60097C8.23339 6.34981 7.89301 6.20871 7.53808 6.20871C7.18316 6.20871 6.84277 6.34981 6.59181 6.60097C6.34084 6.85214 6.19984 7.19279 6.19984 7.54799Z" fill="currentColor"/>
<path d="M10.825 7.54799C10.825 7.72387 10.8596 7.89802 10.9269 8.06051C10.9941 8.223 11.0927 8.37065 11.217 8.49501C11.3413 8.61937 11.4888 8.71802 11.6511 8.78533C11.8135 8.85264 11.9875 8.88728 12.1633 8.88728C12.339 8.88728 12.513 8.85264 12.6754 8.78533C12.8378 8.71802 12.9853 8.61937 13.1095 8.49501C13.2338 8.37065 13.3324 8.223 13.3996 8.06051C13.4669 7.89802 13.5015 7.72387 13.5015 7.54799C13.5015 7.37211 13.4669 7.19796 13.3996 7.03547C13.3324 6.87298 13.2338 6.72534 13.1095 6.60097C12.9853 6.47661 12.8378 6.37796 12.6754 6.31065C12.513 6.24335 12.339 6.20871 12.1633 6.20871C11.9875 6.20871 11.8135 6.24335 11.6511 6.31065C11.4888 6.37796 11.3413 6.47661 11.217 6.60097C11.0927 6.72534 10.9941 6.87298 10.9269 7.03547C10.8596 7.19796 10.825 7.37211 10.825 7.54799Z" fill="currentColor"/>
<path d="M19.4948 22.7266C19.3574 22.7266 19.2203 22.6871 19.1007 22.6078L16.5788 20.9366C16.1633 21.0092 15.7395 21.046 15.315 21.046C13.5432 21.046 11.8742 20.4203 10.6151 19.2844C9.99576 18.7254 9.50864 18.073 9.16717 17.3449C8.81097 16.585 8.63031 15.7775 8.63031 14.9444C8.63031 14.1114 8.81097 13.3038 9.16717 12.544C9.50842 11.8158 9.99554 11.1632 10.6151 10.6045C11.8742 9.4683 13.5434 8.84263 15.3153 8.84263C17.0871 8.84263 18.7561 9.4683 20.0152 10.6042C20.6345 11.1632 21.1217 11.8156 21.4631 12.5437C21.8193 13.3036 22 14.1112 22 14.9442C22 15.9013 21.764 16.8176 21.299 17.6681C20.9325 18.3379 20.4251 18.9487 19.8167 19.4556L20.2001 21.9016C20.2216 22.0385 20.2028 22.1787 20.146 22.3051C20.0893 22.4315 19.997 22.5386 19.8804 22.6134C19.7654 22.6873 19.6315 22.7266 19.4948 22.7266ZM17.2617 19.6757L18.5389 20.5219L18.3696 19.4417C18.2411 19.1379 18.3375 18.7799 18.6116 18.5833C19.8579 17.6895 20.5725 16.3632 20.5725 14.9442C20.5723 12.3676 18.2141 10.2712 15.3153 10.2712C12.4164 10.2712 10.058 12.3676 10.058 14.9442C10.058 17.5208 12.4164 19.6172 15.3153 19.6172C15.7475 19.6172 16.1784 19.5701 16.5957 19.4772C16.8444 19.4219 17.094 19.5038 17.2617 19.6757Z" fill="currentColor"/>
<path d="M16.0709 13.5531C16.0709 13.8701 16.1967 14.1741 16.4207 14.3982C16.6446 14.6223 16.9484 14.7482 17.2651 14.7482C17.5818 14.7482 17.8855 14.6223 18.1095 14.3982C18.3334 14.1741 18.4592 13.8701 18.4592 13.5531C18.4592 13.2362 18.3334 12.9322 18.1095 12.7081C17.8855 12.4839 17.5818 12.358 17.2651 12.358C16.9484 12.358 16.6446 12.4839 16.4207 12.7081C16.1967 12.9322 16.0709 13.2362 16.0709 13.5531Z" fill="currentColor"/>
<path d="M12.1711 13.5531C12.1711 13.8701 12.2969 14.1741 12.5208 14.3982C12.7448 14.6223 13.0485 14.7482 13.3652 14.7482C13.6819 14.7482 13.9857 14.6223 14.2096 14.3982C14.4336 14.1741 14.5594 13.8701 14.5594 13.5531C14.5594 13.2362 14.4336 12.9322 14.2096 12.7081C13.9857 12.4839 13.6819 12.358 13.3652 12.358C13.0485 12.358 12.7448 12.4839 12.5208 12.7081C12.2969 12.9322 12.1711 13.2362 12.1711 13.5531Z" fill="currentColor"/>
<path d="M4.85469 19.0435C4.7516 19.0435 4.64974 19.0212 4.5561 18.9781C4.46247 18.9349 4.37929 18.872 4.31229 18.7936C4.24529 18.7152 4.19605 18.6232 4.16798 18.5239C4.13991 18.4246 4.13366 18.3204 4.14966 18.2185L4.62027 15.2161C3.87956 14.6118 3.26241 13.877 2.82079 13.0694C2.27612 12.0737 2 11.0009 2 9.88058C2 8.90558 2.21144 7.96004 2.62853 7.07054C3.02866 6.21696 3.59987 5.45201 4.32631 4.79643C5.80529 3.46161 7.76737 2.72656 9.85079 2.72656C11.9112 2.72656 13.8577 3.44777 15.3315 4.75759C16.0553 5.40067 16.6287 6.15246 17.0354 6.99219C17.4589 7.86652 17.6824 8.79754 17.7 9.75938C17.702 9.86981 17.6784 9.9792 17.631 10.079C17.5836 10.1787 17.5138 10.2662 17.427 10.3344C17.3402 10.4026 17.2387 10.4497 17.1307 10.472C17.0226 10.4944 16.9108 10.4913 16.8041 10.4632C16.3221 10.3359 15.8213 10.2712 15.3153 10.2712C12.4251 10.2712 10.0736 12.369 10.0736 14.9475C10.0736 15.3431 10.1294 15.7364 10.2391 16.1163C10.3027 16.3364 10.2567 16.5739 10.1158 16.7545C10.0463 16.8435 9.95666 16.9147 9.85429 16.9624C9.75193 17.01 9.63973 17.0326 9.52693 17.0283C9.1181 17.0132 8.70994 16.9687 8.30958 16.8962L5.24858 18.9248C5.13177 19.0022 4.99479 19.0435 4.85469 19.0435ZM6.0649 15.2174L5.81064 16.8391L7.61392 15.6442C7.78164 15.4652 8.03636 15.379 8.28995 15.4355C8.41708 15.4638 8.54533 15.4886 8.67447 15.51C8.65574 15.3234 8.64637 15.1359 8.64637 14.9478C8.64637 14.1147 8.82636 13.3069 9.18167 12.5469C9.52202 11.8183 10.0078 11.1654 10.6256 10.6063C11.8818 9.4692 13.5475 8.84263 15.3153 8.84263C15.6043 8.84263 15.8923 8.85982 16.1773 8.89353C15.6469 6.21138 12.9945 4.15513 9.85079 4.15513C6.30891 4.15513 3.42723 6.72366 3.42723 9.88058C3.42723 11.6223 4.30289 13.2493 5.8296 14.344C6.10795 14.5438 6.20297 14.9105 6.0649 15.2174Z" fill="currentColor"/>
<path d="M10.825 7.54799H10.8563H10.825ZM13.5015 7.54799H13.4703H13.5015ZM19.4948 22.7266L19.4948 22.6953H19.4948V22.7266ZM19.1007 22.6078L19.118 22.5818L19.118 22.5818L19.1007 22.6078ZM16.5788 20.9366L16.5961 20.9106L16.5857 20.9037L16.5734 20.9058L16.5788 20.9366ZM10.6151 19.2844L10.5942 19.3076L10.5942 19.3076L10.6151 19.2844ZM9.16717 17.3449L9.13887 17.3581L9.13888 17.3581L9.16717 17.3449ZM9.16717 12.544L9.19546 12.5572L9.19546 12.5572L9.16717 12.544ZM10.6151 10.6045L10.6361 10.6277L10.6361 10.6277L10.6151 10.6045ZM20.0152 10.6042L20.0361 10.581L20.0361 10.581L20.0152 10.6042ZM21.4631 12.5437L21.4914 12.5305L21.4914 12.5305L21.4631 12.5437ZM21.299 17.6681L21.3264 17.6831L21.3264 17.6831L21.299 17.6681ZM19.8167 19.4556L19.7967 19.4316L19.783 19.4429L19.7858 19.4604L19.8167 19.4556ZM20.2001 21.9016L20.1692 21.9064L20.1692 21.9064L20.2001 21.9016ZM19.8804 22.6134L19.8636 22.5871L19.8636 22.5871L19.8804 22.6134ZM17.2617 19.6757L17.2389 19.698L17.2445 19.7017L17.2617 19.6757ZM18.5389 20.5219L18.5216 20.5479L18.5807 20.5871L18.5697 20.517L18.5389 20.5219ZM18.3696 19.4417L18.4014 19.4368L18.3984 19.4296L18.3696 19.4417ZM18.6116 18.5833L18.5934 18.5579L18.5934 18.5579L18.6116 18.5833ZM20.5725 14.9442H20.6038V14.9442L20.5725 14.9442ZM16.5957 19.4772L16.6025 19.5077H16.6025L16.5957 19.4772ZM18.1095 14.3982L18.1316 14.4203L18.1095 14.3982ZM18.1095 12.7081L18.1316 12.686L18.1095 12.7081ZM17.2651 12.358V12.3268V12.358ZM13.3652 12.358V12.3268V12.358ZM4.85469 19.0435L4.85469 19.0748H4.8547L4.85469 19.0435ZM4.14966 18.2185L4.18053 18.2234L4.18053 18.2234L4.14966 18.2185ZM4.62027 15.2161L4.65115 15.2209L4.65392 15.2032L4.64003 15.1919L4.62027 15.2161ZM2.82079 13.0694L2.84821 13.0544L2.8482 13.0544L2.82079 13.0694ZM2.62853 7.07054L2.65682 7.0838L2.65682 7.0838L2.62853 7.07054ZM4.32631 4.79643L4.34724 4.81963L4.34725 4.81963L4.32631 4.79643ZM15.3315 4.75759L15.3108 4.78095L15.3108 4.78095L15.3315 4.75759ZM17.0354 6.99219L17.0072 7.00581L17.0072 7.00581L17.0354 6.99219ZM17.7 9.75938L17.7313 9.75882V9.7588L17.7 9.75938ZM17.427 10.3344L17.4463 10.359L17.4463 10.3589L17.427 10.3344ZM16.8041 10.4632L16.7961 10.4934L16.7961 10.4934L16.8041 10.4632ZM10.2391 16.1163L10.2691 16.1076V16.1076L10.2391 16.1163ZM10.1158 16.7545L10.0911 16.7352L10.0911 16.7352L10.1158 16.7545ZM9.52693 17.0283L9.5281 16.9971L9.52809 16.9971L9.52693 17.0283ZM8.30958 16.8962L8.31515 16.8655L8.30279 16.8632L8.29232 16.8702L8.30958 16.8962ZM5.24858 18.9248L5.23131 18.8987L5.23131 18.8987L5.24858 18.9248ZM6.0649 15.2174L6.03536 15.2041L6.03403 15.2126L6.0649 15.2174ZM5.81064 16.8391L5.77977 16.8342L5.76878 16.9043L5.8279 16.8651L5.81064 16.8391ZM7.61392 15.6442L7.63166 15.671L7.63672 15.6656L7.61392 15.6442ZM8.28995 15.4355L8.29675 15.405L8.29674 15.405L8.28995 15.4355ZM8.67447 15.51L8.66936 15.5409L8.70965 15.5476L8.70557 15.5069L8.67447 15.51ZM9.18167 12.5469L9.20998 12.5601L9.20998 12.5601L9.18167 12.5469ZM10.6256 10.6063L10.6466 10.6294L10.6466 10.6294L10.6256 10.6063ZM16.1773 8.89353L16.1736 8.92456L16.2163 8.9296L16.208 8.88746L16.1773 8.89353ZM5.8296 14.344L5.84782 14.3186L5.84781 14.3186L5.8296 14.344ZM6.19984 7.54799H6.16859C6.16859 7.91147 6.31287 8.26007 6.5697 8.5171L6.59181 8.49501L6.61391 8.47292C6.3688 8.22762 6.23109 7.89491 6.23109 7.54799H6.19984ZM6.59181 8.49501L6.5697 8.5171C6.82653 8.77413 7.17486 8.91853 7.53808 8.91853V8.88728V8.85603C7.19146 8.85603 6.85902 8.71822 6.61391 8.47292L6.59181 8.49501ZM7.53808 8.88728V8.91853C7.9013 8.91853 8.24964 8.77413 8.50647 8.5171L8.48436 8.49501L8.46226 8.47292C8.21715 8.71822 7.88471 8.85603 7.53808 8.85603V8.88728ZM8.48436 8.49501L8.50647 8.5171C8.76329 8.26007 8.90757 7.91147 8.90757 7.54799H8.87632H8.84507C8.84507 7.89491 8.70737 8.22762 8.46226 8.47292L8.48436 8.49501ZM8.87632 7.54799H8.90757C8.90757 7.18451 8.76329 6.83591 8.50647 6.57888L8.48436 6.60097L8.46226 6.62306C8.70737 6.86836 8.84507 7.20107 8.84507 7.54799H8.87632ZM8.48436 6.60097L8.50647 6.57888C8.24964 6.32186 7.9013 6.17746 7.53808 6.17746V6.20871V6.23996C7.88471 6.23996 8.21715 6.37776 8.46226 6.62306L8.48436 6.60097ZM7.53808 6.20871V6.17746C7.17486 6.17746 6.82653 6.32186 6.5697 6.57888L6.59181 6.60097L6.61391 6.62306C6.85902 6.37776 7.19146 6.23996 7.53808 6.23996V6.20871ZM6.59181 6.60097L6.5697 6.57888C6.31287 6.83591 6.16859 7.18451 6.16859 7.54799H6.19984H6.23109C6.23109 7.20107 6.3688 6.86836 6.61391 6.62306L6.59181 6.60097ZM10.825 7.54799H10.7938C10.7938 7.72797 10.8292 7.90619 10.898 8.07246L10.9269 8.06051L10.9558 8.04856C10.8901 7.88986 10.8563 7.71977 10.8563 7.54799H10.825ZM10.9269 8.06051L10.898 8.07246C10.9668 8.23874 11.0677 8.38983 11.1949 8.5171L11.217 8.49501L11.2391 8.47292C11.1177 8.35146 11.0215 8.20726 10.9558 8.04856L10.9269 8.06051ZM11.217 8.49501L11.1949 8.5171C11.322 8.64437 11.473 8.74532 11.6392 8.8142L11.6511 8.78533L11.6631 8.75646C11.5045 8.69073 11.3605 8.59438 11.2391 8.47292L11.217 8.49501ZM11.6511 8.78533L11.6392 8.8142C11.8053 8.88308 11.9834 8.91853 12.1633 8.91853V8.88728V8.85603C11.9916 8.85603 11.8217 8.8222 11.6631 8.75646L11.6511 8.78533ZM12.1633 8.88728V8.91853C12.3431 8.91853 12.5212 8.88308 12.6874 8.8142L12.6754 8.78533L12.6634 8.75646C12.5049 8.8222 12.3349 8.85603 12.1633 8.85603V8.88728ZM12.6754 8.78533L12.6874 8.8142C12.8535 8.74532 13.0045 8.64437 13.1316 8.5171L13.1095 8.49501L13.0874 8.47292C12.9661 8.59438 12.822 8.69073 12.6634 8.75646L12.6754 8.78533ZM13.1095 8.49501L13.1316 8.5171C13.2588 8.38983 13.3597 8.23874 13.4285 8.07246L13.3996 8.06051L13.3708 8.04856C13.3051 8.20726 13.2088 8.35146 13.0874 8.47292L13.1095 8.49501ZM13.3996 8.06051L13.4285 8.07246C13.4973 7.90619 13.5328 7.72797 13.5328 7.54799H13.5015H13.4703C13.4703 7.71977 13.4364 7.88986 13.3708 8.04856L13.3996 8.06051ZM13.5015 7.54799H13.5328C13.5328 7.36801 13.4973 7.1898 13.4285 7.02352L13.3996 7.03547L13.3708 7.04742C13.4364 7.20612 13.4703 7.37621 13.4703 7.54799H13.5015ZM13.3996 7.03547L13.4285 7.02352C13.3597 6.85724 13.2588 6.70615 13.1316 6.57888L13.1095 6.60097L13.0874 6.62306C13.2088 6.74452 13.3051 6.88872 13.3708 7.04742L13.3996 7.03547ZM13.1095 6.60097L13.1316 6.57888C13.0045 6.45162 12.8535 6.35066 12.6874 6.28178L12.6754 6.31065L12.6634 6.33952C12.822 6.40525 12.9661 6.5016 13.0874 6.62306L13.1095 6.60097ZM12.6754 6.31065L12.6874 6.28178C12.5212 6.21291 12.3431 6.17746 12.1633 6.17746V6.20871V6.23996C12.3349 6.23996 12.5049 6.27379 12.6634 6.33952L12.6754 6.31065ZM12.1633 6.20871V6.17746C11.9834 6.17746 11.8053 6.21291 11.6392 6.28178L11.6511 6.31065L11.6631 6.33952C11.8217 6.27379 11.9916 6.23996 12.1633 6.23996V6.20871ZM11.6511 6.31065L11.6392 6.28178C11.473 6.35066 11.322 6.45162 11.1949 6.57888L11.217 6.60097L11.2391 6.62306C11.3605 6.5016 11.5045 6.40525 11.6631 6.33952L11.6511 6.31065ZM11.217 6.60097L11.1949 6.57888C11.0677 6.70615 10.9668 6.85724 10.898 7.02352L10.9269 7.03547L10.9558 7.04742C11.0215 6.88872 11.1177 6.74452 11.2391 6.62306L11.217 6.60097ZM10.9269 7.03547L10.898 7.02352C10.8292 7.1898 10.7938 7.36801 10.7938 7.54799H10.825H10.8563C10.8563 7.37621 10.8901 7.20612 10.9558 7.04742L10.9269 7.03547ZM19.4948 22.7266V22.6953C19.3634 22.6953 19.2323 22.6575 19.118 22.5818L19.1007 22.6078L19.0834 22.6339C19.2082 22.7166 19.3514 22.7578 19.4948 22.7578V22.7266ZM19.1007 22.6078L19.118 22.5818L16.5961 20.9106L16.5788 20.9366L16.5615 20.9627L19.0834 22.6339L19.1007 22.6078ZM16.5788 20.9366L16.5734 20.9058C16.1597 20.9781 15.7377 21.0147 15.315 21.0147V21.046V21.0772C15.7413 21.0772 16.1669 21.0402 16.5842 20.9674L16.5788 20.9366ZM15.315 21.046V21.0147C13.5506 21.0147 11.8891 20.3917 10.6361 19.2612L10.6151 19.2844L10.5942 19.3076C11.8593 20.4489 13.5359 21.0772 15.315 21.0772V21.046ZM10.6151 19.2844L10.6361 19.2612C10.0197 18.7049 9.5351 18.0558 9.19546 17.3316L9.16717 17.3449L9.13888 17.3581C9.48218 18.0902 9.97186 18.746 10.5942 19.3076L10.6151 19.2844ZM9.16717 17.3449L9.19546 17.3316C8.8412 16.5759 8.66156 15.7728 8.66156 14.9444H8.63031H8.59906C8.59906 15.7821 8.78075 16.5942 9.13887 17.3581L9.16717 17.3449ZM8.63031 14.9444H8.66156C8.66156 14.116 8.8412 13.3129 9.19546 12.5572L9.16717 12.544L9.13887 12.5307C8.78075 13.2946 8.59906 14.1068 8.59906 14.9444H8.63031ZM9.16717 12.544L9.19546 12.5572C9.53488 11.833 10.0194 11.1837 10.6361 10.6277L10.6151 10.6045L10.5942 10.5813C9.97163 11.1426 9.48196 11.7987 9.13887 12.5307L9.16717 12.544ZM10.6151 10.6045L10.6361 10.6277C11.8891 9.49694 13.5508 8.87388 15.3153 8.87388V8.84263V8.81138C13.5361 8.81138 11.8593 9.43967 10.5942 10.5813L10.6151 10.6045ZM15.3153 8.84263V8.87388C17.0797 8.87388 18.7412 9.49693 19.9942 10.6274L20.0152 10.6042L20.0361 10.581C18.771 9.43967 17.0945 8.81138 15.3153 8.81138V8.84263ZM20.0152 10.6042L19.9942 10.6274C20.6106 11.1837 21.0952 11.8328 21.4348 12.557L21.4631 12.5437L21.4914 12.5305C21.1481 11.7984 20.6585 11.1427 20.0361 10.581L20.0152 10.6042ZM21.4631 12.5437L21.4348 12.557C21.7891 13.3127 21.9688 14.1158 21.9688 14.9442H22H22.0312C22.0312 14.1065 21.8496 13.2944 21.4914 12.5305L21.4631 12.5437ZM22 14.9442H21.9688C21.9688 15.896 21.7341 16.8072 21.2716 17.6531L21.299 17.6681L21.3264 17.6831C21.7939 16.8281 22.0312 15.9067 22.0312 14.9442H22ZM21.299 17.6681L21.2716 17.6531C20.9071 18.3194 20.4022 18.927 19.7967 19.4316L19.8167 19.4556L19.8367 19.4796C20.448 18.9703 20.958 18.3565 21.3264 17.6831L21.299 17.6681ZM19.8167 19.4556L19.7858 19.4604L20.1692 21.9064L20.2001 21.9016L20.2309 21.8967L19.8475 19.4507L19.8167 19.4556ZM20.2001 21.9016L20.1692 21.9064C20.1898 22.0373 20.1718 22.1714 20.1175 22.2923L20.146 22.3051L20.1746 22.3179C20.2338 22.1859 20.2534 22.0396 20.2309 21.8967L20.2001 21.9016ZM20.146 22.3051L20.1175 22.2923C20.0633 22.4131 19.975 22.5156 19.8636 22.5871L19.8804 22.6134L19.8973 22.6397C20.019 22.5616 20.1153 22.4498 20.1746 22.3179L20.146 22.3051ZM19.8804 22.6134L19.8636 22.5871C19.7535 22.6578 19.6256 22.6953 19.4948 22.6953L19.4948 22.7266L19.4948 22.7578C19.6375 22.7578 19.7772 22.7168 19.8973 22.6397L19.8804 22.6134ZM17.2617 19.6757L17.2445 19.7017L18.5216 20.5479L18.5389 20.5219L18.5561 20.4958L17.279 19.6496L17.2617 19.6757ZM18.5389 20.5219L18.5697 20.517L18.4004 19.4369L18.3696 19.4417L18.3387 19.4466L18.508 20.5267L18.5389 20.5219ZM18.3696 19.4417L18.3984 19.4296C18.2755 19.1391 18.3677 18.7967 18.6298 18.6087L18.6116 18.5833L18.5934 18.5579C18.3072 18.7631 18.2067 19.1368 18.3408 19.4539L18.3696 19.4417ZM18.6116 18.5833L18.6298 18.6087C19.8835 17.7096 20.6038 16.3742 20.6038 14.9442H20.5725H20.5413C20.5413 16.3522 19.8323 17.6694 18.5934 18.5579L18.6116 18.5833ZM20.5725 14.9442L20.6038 14.9442C20.6036 12.347 18.2278 10.24 15.3153 10.24V10.2712V10.3025C18.2004 10.3025 20.5411 12.3882 20.5413 14.9442L20.5725 14.9442ZM15.3153 10.2712V10.24C12.4027 10.24 10.0267 12.347 10.0267 14.9442H10.058H10.0892C10.0892 12.3883 12.4301 10.3025 15.3153 10.3025V10.2712ZM10.058 14.9442H10.0267C10.0267 17.5414 12.4027 19.6484 15.3153 19.6484V19.6172V19.5859C12.4301 19.5859 10.0892 17.5001 10.0892 14.9442H10.058ZM15.3153 19.6172V19.6484C15.7498 19.6484 16.183 19.6011 16.6025 19.5077L16.5957 19.4772L16.589 19.4467C16.1739 19.5391 15.7453 19.5859 15.3153 19.5859V19.6172ZM16.5957 19.4772L16.6025 19.5077C16.8403 19.4548 17.0789 19.5331 17.2394 19.6975L17.2617 19.6757L17.2841 19.6538C17.1091 19.4745 16.8486 19.3889 16.589 19.4467L16.5957 19.4772ZM16.0709 13.5531H16.0397C16.0397 13.8784 16.1688 14.1903 16.3986 14.4203L16.4207 14.3982L16.4428 14.3761C16.2247 14.1578 16.1022 13.8618 16.1022 13.5531H16.0709ZM16.4207 14.3982L16.3986 14.4203C16.6284 14.6503 16.9401 14.7795 17.2651 14.7795V14.7482V14.717C16.9567 14.717 16.6609 14.5944 16.4428 14.3761L16.4207 14.3982ZM17.2651 14.7482V14.7795C17.5901 14.7795 17.9018 14.6503 18.1316 14.4203L18.1095 14.3982L18.0874 14.3761C17.8693 14.5944 17.5735 14.717 17.2651 14.717V14.7482ZM18.1095 14.3982L18.1316 14.4203C18.3614 14.1903 18.4905 13.8784 18.4905 13.5531H18.4592H18.428C18.428 13.8618 18.3055 14.1578 18.0874 14.3761L18.1095 14.3982ZM18.4592 13.5531H18.4905C18.4905 13.2279 18.3614 12.916 18.1316 12.686L18.1095 12.7081L18.0874 12.7302C18.3055 12.9484 18.428 13.2444 18.428 13.5531H18.4592ZM18.1095 12.7081L18.1316 12.686C17.9018 12.456 17.5901 12.3268 17.2651 12.3268V12.358V12.3893C17.5735 12.3893 17.8693 12.5119 18.0874 12.7302L18.1095 12.7081ZM17.2651 12.358V12.3268C16.9401 12.3268 16.6284 12.456 16.3986 12.686L16.4207 12.7081L16.4428 12.7302C16.6609 12.5119 16.9567 12.3893 17.2651 12.3893V12.358ZM16.4207 12.7081L16.3986 12.686C16.1688 12.916 16.0397 13.2279 16.0397 13.5531H16.0709H16.1022C16.1022 13.2444 16.2247 12.9484 16.4428 12.7302L16.4207 12.7081ZM12.1711 13.5531H12.1398C12.1398 13.8784 12.2689 14.1903 12.4987 14.4203L12.5208 14.3982L12.5429 14.3761C12.3248 14.1578 12.2023 13.8618 12.2023 13.5531H12.1711ZM12.5208 14.3982L12.4987 14.4203C12.7285 14.6503 13.0402 14.7795 13.3652 14.7795V14.7482V14.717C13.0568 14.717 12.761 14.5944 12.5429 14.3761L12.5208 14.3982ZM13.3652 14.7482V14.7795C13.6902 14.7795 14.0019 14.6503 14.2317 14.4203L14.2096 14.3982L14.1875 14.3761C13.9694 14.5944 13.6736 14.717 13.3652 14.717V14.7482ZM14.2096 14.3982L14.2317 14.4203C14.4615 14.1903 14.5906 13.8784 14.5906 13.5531H14.5594H14.5281C14.5281 13.8618 14.4056 14.1578 14.1875 14.3761L14.2096 14.3982ZM14.5594 13.5531H14.5906C14.5906 13.2279 14.4615 12.916 14.2317 12.686L14.2096 12.7081L14.1875 12.7302C14.4056 12.9484 14.5281 13.2444 14.5281 13.5531H14.5594ZM14.2096 12.7081L14.2317 12.686C14.0019 12.456 13.6902 12.3268 13.3652 12.3268V12.358V12.3893C13.6736 12.3893 13.9694 12.5119 14.1875 12.7302L14.2096 12.7081ZM13.3652 12.358V12.3268C13.0402 12.3268 12.7285 12.456 12.4987 12.686L12.5208 12.7081L12.5429 12.7302C12.761 12.5119 13.0568 12.3893 13.3652 12.3893V12.358ZM12.5208 12.7081L12.4987 12.686C12.2689 12.916 12.1398 13.2279 12.1398 13.5531H12.1711H12.2023C12.2023 13.2444 12.3248 12.9484 12.5429 12.7302L12.5208 12.7081ZM4.85469 19.0435L4.85468 19.0123C4.75612 19.0123 4.65872 18.9909 4.56918 18.9497L4.5561 18.9781L4.54302 19.0064C4.64076 19.0515 4.74709 19.0748 4.85469 19.0748L4.85469 19.0435ZM4.5561 18.9781L4.56918 18.9497C4.47965 18.9084 4.40011 18.8482 4.33604 18.7733L4.31229 18.7936L4.28853 18.8139C4.35847 18.8957 4.44529 18.9614 4.54302 19.0064L4.5561 18.9781ZM4.31229 18.7936L4.33604 18.7733C4.27198 18.6983 4.2249 18.6103 4.19805 18.5154L4.16798 18.5239L4.13791 18.5324C4.16721 18.636 4.2186 18.732 4.28853 18.8139L4.31229 18.7936ZM4.16798 18.5239L4.19805 18.5154C4.1712 18.4205 4.16523 18.3208 4.18053 18.2234L4.14966 18.2185L4.11879 18.2137C4.10208 18.32 4.10861 18.4288 4.13791 18.5324L4.16798 18.5239ZM4.14966 18.2185L4.18053 18.2234L4.65115 15.2209L4.62027 15.2161L4.5894 15.2112L4.11879 18.2137L4.14966 18.2185ZM4.62027 15.2161L4.64003 15.1919C3.90229 14.59 3.2878 13.8583 2.84821 13.0544L2.82079 13.0694L2.79337 13.0844C3.23701 13.8957 3.85683 14.6336 4.60052 15.2403L4.62027 15.2161ZM2.82079 13.0694L2.8482 13.0544C2.30602 12.0632 2.03125 10.9956 2.03125 9.88058H2H1.96875C1.96875 11.0062 2.24623 12.0841 2.79337 13.0844L2.82079 13.0694ZM2 9.88058H2.03125C2.03125 8.9102 2.24167 7.96919 2.65682 7.0838L2.62853 7.07054L2.60023 7.05727C2.18122 7.9509 1.96875 8.90096 1.96875 9.88058H2ZM2.62853 7.07054L2.65682 7.0838C3.05512 6.23414 3.62377 5.47253 4.34724 4.81963L4.32631 4.79643L4.30537 4.77323C3.57596 5.43149 3.0022 6.19978 2.60023 7.05727L2.62853 7.07054ZM4.32631 4.79643L4.34725 4.81963C5.8202 3.49024 7.77471 2.75781 9.85079 2.75781V2.72656V2.69531C7.76002 2.69531 5.79037 3.43297 4.30537 4.77323L4.32631 4.79643ZM9.85079 2.72656V2.75781C11.904 2.75781 13.8429 3.47646 15.3108 4.78095L15.3315 4.75759L15.3523 4.73423C13.8725 3.41908 11.9185 2.69531 9.85079 2.69531V2.72656ZM15.3315 4.75759L15.3108 4.78095C16.0316 5.42141 16.6025 6.16992 17.0072 7.00581L17.0354 6.99219L17.0635 6.97857C16.655 6.13499 16.079 5.37993 15.3523 4.73423L15.3315 4.75759ZM17.0354 6.99219L17.0072 7.00581C17.4288 7.87611 17.6512 8.80268 17.6688 9.75995L17.7 9.75938L17.7313 9.7588C17.7136 8.79241 17.489 7.85693 17.0635 6.97856L17.0354 6.99219ZM17.7 9.75938L17.6688 9.75993C17.6707 9.86555 17.6481 9.97016 17.6028 10.0656L17.631 10.079L17.6592 10.0924C17.7087 9.98825 17.7333 9.87408 17.7313 9.75882L17.7 9.75938ZM17.631 10.079L17.6028 10.0656C17.5575 10.161 17.4907 10.2446 17.4077 10.3098L17.427 10.3344L17.4463 10.3589C17.5369 10.2877 17.6098 10.1965 17.6592 10.0924L17.631 10.079ZM17.427 10.3344L17.4077 10.3098C17.3247 10.375 17.2277 10.42 17.1243 10.4414L17.1307 10.472L17.137 10.5026C17.2498 10.4793 17.3557 10.4301 17.4463 10.359L17.427 10.3344ZM17.1307 10.472L17.1243 10.4414C17.021 10.4628 16.9141 10.4599 16.812 10.433L16.8041 10.4632L16.7961 10.4934C16.9075 10.5228 17.0242 10.5259 17.137 10.5026L17.1307 10.472ZM16.8041 10.4632L16.812 10.433C16.3274 10.305 15.824 10.24 15.3153 10.24V10.2712V10.3025C15.8187 10.3025 16.3167 10.3668 16.7961 10.4934L16.8041 10.4632ZM15.3153 10.2712V10.24C12.4113 10.24 10.0424 12.3485 10.0424 14.9475H10.0736H10.1049C10.1049 12.3895 12.4389 10.3025 15.3153 10.3025V10.2712ZM10.0736 14.9475H10.0424C10.0424 15.346 10.0985 15.7422 10.2091 16.125L10.2391 16.1163L10.2691 16.1076C10.1602 15.7305 10.1049 15.3401 10.1049 14.9475H10.0736ZM10.2391 16.1163L10.2091 16.125C10.2699 16.3354 10.2259 16.5625 10.0911 16.7352L10.1158 16.7545L10.1404 16.7737C10.2875 16.5852 10.3355 16.3373 10.2691 16.1076L10.2391 16.1163ZM10.1158 16.7545L10.0911 16.7352C10.0247 16.8204 9.93899 16.8885 9.84111 16.934L9.85429 16.9624L9.86747 16.9907C9.97432 16.941 10.0679 16.8666 10.1404 16.7737L10.1158 16.7545ZM9.85429 16.9624L9.84111 16.934C9.74324 16.9795 9.63596 17.0012 9.5281 16.9971L9.52693 17.0283L9.52576 17.0596C9.64351 17.064 9.76062 17.0404 9.86747 16.9907L9.85429 16.9624ZM9.52693 17.0283L9.52809 16.9971C9.12074 16.982 8.71405 16.9377 8.31515 16.8655L8.30958 16.8962L8.30401 16.927C8.70582 16.9998 9.11546 17.0443 9.52577 17.0596L9.52693 17.0283ZM8.30958 16.8962L8.29232 16.8702L5.23131 18.8987L5.24858 18.9248L5.26584 18.9508L8.32684 16.9223L8.30958 16.8962ZM5.24858 18.9248L5.23131 18.8987C5.11963 18.9728 4.98864 19.0122 4.85468 19.0123L4.85469 19.0435L4.8547 19.0748C5.00093 19.0747 5.14392 19.0316 5.26584 18.9508L5.24858 18.9248ZM6.0649 15.2174L6.03403 15.2126L5.77977 16.8342L5.81064 16.8391L5.84151 16.8439L6.09578 15.2223L6.0649 15.2174ZM5.81064 16.8391L5.8279 16.8651L7.63118 15.6702L7.61392 15.6442L7.59666 15.6181L5.79338 16.813L5.81064 16.8391ZM7.61392 15.6442L7.63672 15.6656C7.79714 15.4944 8.04069 15.412 8.28316 15.466L8.28995 15.4355L8.29674 15.405C8.03202 15.346 7.76615 15.436 7.59111 15.6228L7.61392 15.6442ZM8.28995 15.4355L8.28315 15.466C8.41087 15.4945 8.53968 15.5194 8.66936 15.5409L8.67447 15.51L8.67959 15.4792C8.55099 15.4579 8.4233 15.4332 8.29675 15.405L8.28995 15.4355ZM8.67447 15.51L8.70557 15.5069C8.68694 15.3214 8.67762 15.1349 8.67762 14.9478H8.64637H8.61512C8.61512 15.137 8.62454 15.3255 8.64338 15.5132L8.67447 15.51ZM8.64637 14.9478H8.67762C8.67762 14.1193 8.8566 13.316 9.20998 12.5601L9.18167 12.5469L9.15336 12.5336C8.79613 13.2978 8.61512 14.1101 8.61512 14.9478H8.64637ZM9.18167 12.5469L9.20998 12.5601C9.54851 11.8354 10.0317 11.1859 10.6466 10.6294L10.6256 10.6063L10.6047 10.5831C9.98387 11.1449 9.49554 11.8012 9.15335 12.5336L9.18167 12.5469ZM10.6256 10.6063L10.6466 10.6294C11.8967 9.49781 13.5548 8.87388 15.3153 8.87388V8.84263V8.81138C13.5401 8.81138 11.8668 9.44059 10.6047 10.5831L10.6256 10.6063ZM15.3153 8.84263V8.87388C15.6031 8.87388 15.8898 8.891 16.1736 8.92456L16.1773 8.89353L16.181 8.86249C15.8947 8.82864 15.6056 8.81138 15.3153 8.81138V8.84263ZM16.1773 8.89353L16.208 8.88746C15.6743 6.18862 13.0072 4.12388 9.85079 4.12388V4.15513V4.18638C12.9818 4.18638 15.6196 6.23415 16.1467 8.89959L16.1773 8.89353ZM9.85079 4.15513V4.12388C6.29513 4.12388 3.39598 6.70312 3.39598 9.88058H3.42723H3.45848C3.45848 6.7442 6.32269 4.18638 9.85079 4.18638V4.15513ZM3.42723 9.88058H3.39598C3.39598 11.6333 4.27724 13.2694 5.81139 14.3694L5.8296 14.344L5.84781 14.3186C4.32853 13.2293 3.45848 11.6114 3.45848 9.88058H3.42723ZM5.8296 14.344L5.81138 14.3694C6.07754 14.5604 6.16842 14.9111 6.03641 15.2046L6.0649 15.2174L6.0934 15.2302C6.23751 14.9099 6.13836 14.5271 5.84782 14.3186L5.8296 14.344Z" fill="currentColor" mask="url(#path-1-inside-1_9985_40525)"/>
</svg>
