<svg width="24" height="32" viewBox="0 0 24 32" fill="none" xmlns="http://www.w3.org/2000/svg">
<path d="M12.9312 0.519195L15.6674 4.17102H19.5138C20.2575 4.17102 20.8604 4.97565 20.8604 5.96824V7.03892C20.8604 7.5669 20.5397 7.99491 20.1442 7.99491C19.7486 7.99491 19.4279 7.5669 19.4279 7.03892V6.08298H15.0729L12 1.94356L8.89848 6.06384H4.54346V11.8761L1.45627 15.9964L4.54346 20.1166V25.929H8.92712L12 30.0492L15.0872 25.929H19.4422V20.1167L22.5437 15.9964L21.2401 14.2566C20.9623 13.8837 20.9623 13.2815 21.2401 12.9086C21.3067 12.819 21.3859 12.7479 21.4732 12.6994C21.5604 12.6508 21.6541 12.6259 21.7486 12.6259C21.8432 12.6259 21.9368 12.6508 22.0241 12.6994C22.1114 12.7479 22.1906 12.819 22.2572 12.9086L23.611 14.7154C24.1297 15.4217 24.1297 16.552 23.611 17.2583L20.8747 20.9101V26.0437C20.8747 27.0363 20.2719 27.8409 19.5281 27.8409H15.6888L12.9741 31.4736C12.8467 31.6444 12.6947 31.779 12.5273 31.8694C12.3599 31.9598 12.1805 32.0041 12 31.9997C11.6465 31.9932 11.3072 31.8127 11.0473 31.4927L8.31116 27.8409H4.45751C3.71379 27.8409 3.11089 27.0363 3.11089 26.0437V20.9101L0.389039 17.2774C-0.12968 16.5711 -0.12968 15.4408 0.389039 14.7345L3.12523 11.0827V5.94913C3.12518 4.96395 3.71939 4.16238 4.45751 4.15187H8.31111L11.0259 0.519226C11.5551 -0.173076 12.402 -0.173107 12.9312 0.519195ZM17.057 10.9489C17.1241 11.0377 17.1774 11.1435 17.2138 11.26C17.2501 11.3765 17.2688 11.5014 17.2688 11.6276C17.2688 11.7538 17.2501 11.8788 17.2138 11.9953C17.1774 12.1117 17.1241 12.2175 17.057 12.3063L11.5845 19.61C11.4611 19.7766 11.3137 19.9081 11.1513 19.9968C10.9888 20.0856 10.8146 20.1296 10.6391 20.1262C10.4669 20.1279 10.2963 20.083 10.1375 19.9943C9.97867 19.9056 9.83497 19.7748 9.71504 19.61L6.98598 15.9391C6.91103 15.8533 6.85016 15.7479 6.8072 15.6293C6.76423 15.5107 6.74009 15.3815 6.7363 15.2499C6.7325 15.1183 6.74913 14.987 6.78514 14.8644C6.82115 14.7417 6.87577 14.6303 6.94556 14.5372C7.01535 14.444 7.09881 14.3711 7.19071 14.3231C7.28261 14.275 7.38095 14.2528 7.47958 14.2579C7.57821 14.2629 7.67499 14.2952 7.76385 14.3525C7.8527 14.4099 7.93172 14.4911 7.99594 14.5911L10.6606 18.1473L16.047 10.9489C16.3264 10.5782 16.7776 10.5782 17.057 10.9489Z" fill="currentColor"/>
</svg>
