<svg width="24" height="25" viewBox="0 0 24 25" fill="none" xmlns="http://www.w3.org/2000/svg">
<g clip-path="url(#clip0_3_774)">
<path d="M19.6077 19.6937C19.2111 18.9166 18.6877 18.1875 18.0374 17.5373C14.7031 14.2029 9.29705 14.2029 5.96272 17.5373C5.31247 18.1875 4.78903 18.9166 4.3924 19.6937M1 12.5C1 6.42487 5.92487 1.5 12 1.5C18.0751 1.5 23 6.42487 23 12.5C23 18.5751 18.0751 23.5 12 23.5C5.92487 23.5 0.999999 18.5751 1 12.5ZM16 10.5C16 12.7091 14.2091 14.5 12 14.5C9.79086 14.5 8 12.7091 8 10.5C8 8.29086 9.79086 6.5 12 6.5C14.2091 6.5 16 8.29086 16 10.5Z" stroke="#004773" stroke-width="2"/>
</g>
<defs>
<clipPath id="clip0_3_774">
<rect width="24" height="24" fill="white" transform="translate(0 0.5)"/>
</clipPath>
</defs>
</svg>
