<svg width="25" height="24" viewBox="0 0 25 24" fill="none" xmlns="http://www.w3.org/2000/svg">
<path d="M6.26923 15H5.34615C4.85652 15 4.38695 14.8055 4.04073 14.4593C3.6945 14.1131 3.5 13.6435 3.5 13.1538V4.84615C3.5 4.35652 3.6945 3.88695 4.04073 3.54073C4.38695 3.1945 4.85652 3 5.34615 3H13.6538C14.1435 3 14.6131 3.1945 14.9593 3.54073C15.3055 3.88695 15.5 4.35652 15.5 4.84615V5.76923M11.5 21H19.5C20.6046 21 21.5 20.1046 21.5 19V11C21.5 9.89543 20.6046 9 19.5 9H11.5C10.3954 9 9.5 9.89543 9.5 11V19C9.5 20.1046 10.3954 21 11.5 21Z" stroke="currentColor" stroke-width="2" stroke-linecap="round" stroke-linejoin="round"/>
</svg>
