<svg width="24" height="24" viewBox="0 0 24 24" fill="none" xmlns="http://www.w3.org/2000/svg">
<path d="M2.375 10.0366C2.375 6.59751 5.7685 3.80075 9.9397 3.80075C13.8557 3.80075 17.0908 6.26781 17.4637 9.41472C17.7057 9.37607 17.9477 9.35333 18.1908 9.34424C18.4086 9.35333 18.6253 9.37493 18.8409 9.4079C18.4669 5.49472 14.6279 2.41602 9.9397 2.41602C5.0018 2.41602 1 5.82669 1 10.0366C1.0605 12.4423 2.3057 14.6592 4.322 15.9507L3.772 18.1824C3.74047 18.3113 3.74606 18.4469 3.78807 18.5725C3.83009 18.6981 3.9067 18.8083 4.0085 18.8896C4.11168 18.9732 4.23571 19.0249 4.36617 19.0386C4.49662 19.0522 4.62816 19.0274 4.7455 18.9669L7.8189 17.4207C8.5152 17.5731 9.2269 17.6526 9.9397 17.6561C10.7344 17.6544 11.5266 17.5613 12.3014 17.3787C12.1676 16.9361 12.0838 16.4791 12.0517 16.0167C10.8639 16.309 9.63069 16.3465 8.4283 16.1269L8.3898 16.1201L8.3051 16.1053C8.0741 16.0667 7.8431 16.0258 7.6231 15.9689L5.9291 16.8216C5.84642 16.7858 5.76463 16.7479 5.6838 16.7079L5.5672 16.651L5.9027 15.3027C5.6167 15.1435 5.3417 14.9639 5.0777 14.7684C3.4541 13.7395 2.4421 11.967 2.375 10.0366ZM19.502 13.8099C19.09 13.5352 18.6347 13.337 18.1567 13.2245C17.6562 13.2245 17.2052 12.9209 17.0127 12.4548C16.9194 12.2267 16.8953 11.9748 16.9434 11.7322C16.9915 11.4897 17.1096 11.2679 17.2822 11.0962C17.4576 10.9211 17.6783 10.8024 17.9177 10.7543C18.1571 10.7063 18.4048 10.7311 18.6308 10.8256C19.0928 11.0189 19.3942 11.4736 19.3942 11.9773C19.4756 12.3922 19.6318 12.7879 19.8562 13.1449C20.217 13.495 20.4777 13.9361 20.6119 14.4227C20.1864 14.3552 19.7962 14.1389 19.5064 13.8099H19.502ZM21.768 16.7954C21.3566 16.8784 20.965 17.0376 20.613 17.2672C20.2665 17.631 19.8309 17.8971 19.3502 18.0358C19.414 17.6015 19.6274 17.2058 19.9497 16.9125C20.2203 16.4964 20.415 16.036 20.525 15.5517C20.5228 14.8638 21.075 14.3045 21.7592 14.3022C22.4423 14.3 22.9978 14.857 23 15.5448C23.0022 16.2338 22.45 16.7932 21.768 16.7954ZM14.6092 14.3318C15.0206 14.2488 15.4122 14.0896 15.7642 13.8611C16.1096 13.4973 16.5452 13.2313 17.027 13.0937C16.961 13.5257 16.7487 13.9236 16.4253 14.2158C16.156 14.6299 15.9615 15.091 15.8511 15.5767C15.8511 16.2645 15.2989 16.8239 14.6158 16.825C13.9338 16.8273 13.3772 16.2702 13.3761 15.5824C13.3739 14.8945 13.9261 14.3341 14.6081 14.3318H14.6092ZM18.1798 17.9221C17.7025 17.8076 17.2483 17.6075 16.8378 17.3309V17.3389C16.5496 17.0077 16.1601 16.789 15.7345 16.7193C15.8665 17.2058 16.1261 17.6481 16.4836 18.0005C16.708 18.3575 16.8642 18.7543 16.9423 19.1693C16.9423 19.674 17.2437 20.1277 17.7068 20.3209C18.1688 20.5142 18.7012 20.4073 19.0554 20.0504C19.4085 19.6945 19.5152 19.1579 19.3238 18.6918C19.227 18.4618 19.067 18.2662 18.8636 18.1294C18.6603 17.9925 18.4225 17.9204 18.1798 17.9221Z" fill="currentColor"/>
</svg>
