<svg width="40" height="40" viewBox="0 0 40 40" fill="none" xmlns="http://www.w3.org/2000/svg">
<path d="M14 31.25H26C27.2188 31.25 28.25 30.2656 28.25 29V16.4375C28.25 16.3906 28.25 16.3438 28.2031 16.25H22.625C21.5469 16.25 20.75 15.4531 20.75 14.375V8.79688C20.6562 8.79688 20.6094 8.75 20.5625 8.75H14C12.7344 8.75 11.75 9.78125 11.75 11V29C11.75 30.2656 12.7344 31.25 14 31.25ZM27.7812 15.4062L21.5938 9.21875C21.5469 9.17188 21.5469 9.125 21.5 9.07812V14.375C21.5 15.0312 21.9688 15.5 22.625 15.5H27.9219C27.875 15.5 27.8281 15.4531 27.7812 15.4062ZM14 8H20.5625C21.125 8 21.7344 8.28125 22.1562 8.70312L28.2969 14.8438C28.7188 15.2656 29 15.875 29 16.4375V29C29 30.6875 27.6406 32 26 32H14C12.3125 32 11 30.6875 11 29V11C11 9.35938 12.3125 8 14 8ZM14.375 11H18.125C18.3125 11 18.5 11.1875 18.5 11.375C18.5 11.6094 18.3125 11.75 18.125 11.75H14.375C14.1406 11.75 14 11.6094 14 11.375C14 11.1875 14.1406 11 14.375 11ZM14.375 14H18.125C18.3125 14 18.5 14.1875 18.5 14.375C18.5 14.6094 18.3125 14.75 18.125 14.75H14.375C14.1406 14.75 14 14.6094 14 14.375C14 14.1875 14.1406 14 14.375 14ZM16.8594 22.7188L16.1562 25.3906C15.9219 26.1875 15.1719 26.75 14.3281 26.75H14C13.7656 26.75 13.625 26.6094 13.625 26.375C13.625 26.1875 13.7656 26 14 26H14.3281C14.8438 26 15.2656 25.6719 15.4062 25.2031L16.1562 22.5312C16.25 22.1562 16.5781 21.9219 17 21.9219C17.375 21.9219 17.7031 22.1562 17.7969 22.5312L18.7344 25.8594L19.7656 24.0781C20 23.6562 20.4219 23.375 20.9375 23.375C21.4062 23.375 21.8281 23.6562 22.1094 24.0781L22.8594 25.4375C23.0938 25.8125 23.4688 26.0469 23.8438 26.0469H26C26.1875 26.0469 26.375 26.1875 26.375 26.4219C26.375 26.6094 26.1875 26.7969 26 26.7969H23.8438C23.1875 26.7969 22.5312 26.4219 22.2031 25.8125L21.4531 24.4531C21.3125 24.2656 21.125 24.125 20.9375 24.125C20.7031 24.125 20.5156 24.2656 20.4219 24.4531L19.25 26.4219C19.1562 26.6562 18.9219 26.75 18.6875 26.75C18.4062 26.75 18.125 26.5625 18.0781 26.2812L17.0938 22.7188C17.0938 22.6719 17.0469 22.625 17 22.625C16.9062 22.625 16.8594 22.6719 16.8594 22.7188Z" fill="#004773"/>
<path d="M28.2031 16.25L28.6503 16.0264L28.5121 15.75H28.2031V16.25ZM20.75 8.79688H21.25V8.29688H20.75V8.79688ZM21.5 9.07812L21.8536 8.72457L21 7.87102V9.07812H21.5ZM16.8594 22.7188L17.3429 22.846L17.3594 22.7834V22.7188H16.8594ZM16.1562 25.3906L16.6359 25.5317L16.638 25.5248L16.6398 25.5179L16.1562 25.3906ZM15.4062 25.2031L15.8852 25.3468L15.8876 25.3383L15.4062 25.2031ZM16.1562 22.5312L16.6376 22.6664L16.6396 22.6595L16.6413 22.6525L16.1562 22.5312ZM17.7969 22.5312L17.3118 22.6525L17.3136 22.6597L17.3156 22.6668L17.7969 22.5312ZM18.7344 25.8594L18.2531 25.9949L18.574 27.1343L19.1671 26.1099L18.7344 25.8594ZM19.7656 24.0781L20.1984 24.3287L20.2027 24.3209L19.7656 24.0781ZM22.1094 24.0781L22.5472 23.8366L22.537 23.8182L22.5254 23.8008L22.1094 24.0781ZM22.8594 25.4375L22.4216 25.679L22.4282 25.691L22.4354 25.7025L22.8594 25.4375ZM22.2031 25.8125L22.6434 25.5754L22.6409 25.571L22.2031 25.8125ZM21.4531 24.4531L21.8909 24.2116L21.8741 24.181L21.8531 24.1531L21.4531 24.4531ZM20.4219 24.4531L20.8515 24.7089L20.8609 24.6931L20.8691 24.6767L20.4219 24.4531ZM19.25 26.4219L18.8204 26.1661L18.8003 26.1998L18.7858 26.2362L19.25 26.4219ZM18.0781 26.2812L18.5713 26.1991L18.567 26.1733L18.5601 26.1481L18.0781 26.2812ZM17.0938 22.7188H16.5938V22.7866L16.6118 22.8519L17.0938 22.7188ZM14 31.25V31.75H26V31.25V30.75H14V31.25ZM26 31.25V31.75C27.4881 31.75 28.75 30.5485 28.75 29H28.25H27.75C27.75 29.9827 26.9494 30.75 26 30.75V31.25ZM28.25 29H28.75V16.4375H28.25H27.75V29H28.25ZM28.25 16.4375H28.75C28.75 16.4133 28.7509 16.3458 28.7344 16.2633C28.718 16.181 28.6889 16.1035 28.6503 16.0264L28.2031 16.25L27.7559 16.4736C27.7602 16.4823 27.7608 16.4846 27.7598 16.4816C27.7585 16.4782 27.7561 16.4705 27.7539 16.4594C27.7516 16.448 27.7505 16.4378 27.7501 16.431C27.75 16.4281 27.75 16.4266 27.75 16.4275C27.75 16.429 27.75 16.431 27.75 16.4375H28.25ZM28.2031 16.25V15.75H22.625V16.25V16.75H28.2031V16.25ZM22.625 16.25V15.75C21.823 15.75 21.25 15.177 21.25 14.375H20.75H20.25C20.25 15.7293 21.2707 16.75 22.625 16.75V16.25ZM20.75 14.375H21.25V8.79688H20.75H20.25V14.375H20.75ZM20.75 8.79688V8.29688C20.7939 8.29688 20.8265 8.31005 20.8244 8.3092C20.8197 8.30735 20.8198 8.30733 20.8078 8.30236C20.7994 8.29893 20.7834 8.29241 20.7648 8.28583C20.7294 8.27332 20.6561 8.25 20.5625 8.25V8.75V9.25C20.4924 9.25 20.4425 9.23254 20.432 9.22882C20.4258 9.22664 20.4226 9.22524 20.4277 9.2273C20.4289 9.22783 20.443 9.23367 20.453 9.23768C20.5094 9.26026 20.6124 9.29688 20.75 9.29688V8.79688ZM20.5625 8.75V8.25H14V8.75V9.25H20.5625V8.75ZM14 8.75V8.25C12.4515 8.25 11.25 9.51191 11.25 11H11.75H12.25C12.25 10.0506 13.0173 9.25 14 9.25V8.75ZM11.75 11H11.25V29H11.75H12.25V11H11.75ZM11.75 29H11.25C11.25 30.5418 12.4582 31.75 14 31.75V31.25V30.75C13.0105 30.75 12.25 29.9895 12.25 29H11.75ZM27.7812 15.4062L28.1348 15.0527L21.9473 8.8652L21.5938 9.21875L21.2402 9.5723L27.4277 15.7598L27.7812 15.4062ZM21.5938 9.21875L21.9473 8.8652C21.9869 8.90483 22.0057 8.94808 21.9941 8.92483C21.9823 8.90121 21.9401 8.81108 21.8536 8.72457L21.5 9.07812L21.1464 9.43168C21.1068 9.39205 21.088 9.34879 21.0997 9.37204C21.1115 9.39567 21.1537 9.4858 21.2402 9.5723L21.5938 9.21875ZM21.5 9.07812H21V14.375H21.5H22V9.07812H21.5ZM21.5 14.375H21C21 15.3074 21.6926 16 22.625 16V15.5V15C22.2449 15 22 14.7551 22 14.375H21.5ZM22.625 15.5V16H27.9219V15.5V15H22.625V15.5ZM27.9219 15.5V15C27.9946 15 28.0515 15.0183 28.0871 15.0339C28.1216 15.049 28.1437 15.0648 28.1516 15.0707C28.16 15.077 28.163 15.0802 28.1584 15.0759C28.1536 15.0714 28.1476 15.0655 28.1348 15.0527L27.7812 15.4062L27.4277 15.7598C27.4446 15.7767 27.4941 15.8276 27.5516 15.8707C27.6037 15.9098 27.7353 16 27.9219 16V15.5ZM14 8V8.5H20.5625V8V7.5H14V8ZM20.5625 8V8.5C20.9732 8.5 21.4601 8.71408 21.8027 9.05668L22.1562 8.70312L22.5098 8.34957C22.0087 7.84842 21.2768 7.5 20.5625 7.5V8ZM22.1562 8.70312L21.8027 9.05668L27.9433 15.1973L28.2969 14.8438L28.6504 14.4902L22.5098 8.34957L22.1562 8.70312ZM28.2969 14.8438L27.9433 15.1973C28.2859 15.5399 28.5 16.0268 28.5 16.4375H29H29.5C29.5 15.7232 29.1516 14.9913 28.6504 14.4902L28.2969 14.8438ZM29 16.4375H28.5V29H29H29.5V16.4375H29ZM29 29H28.5C28.5 30.4063 27.3696 31.5 26 31.5V32V32.5C27.9117 32.5 29.5 30.9687 29.5 29H29ZM26 32V31.5H14V32V32.5H26V32ZM14 32V31.5C12.5886 31.5 11.5 30.4114 11.5 29H11H10.5C10.5 30.9636 12.0364 32.5 14 32.5V32ZM11 29H11.5V11H11H10.5V29H11ZM11 11H11.5C11.5 9.63041 12.5937 8.5 14 8.5V8V7.5C12.0313 7.5 10.5 9.08834 10.5 11H11ZM14.375 11V11.5H18.125V11V10.5H14.375V11ZM18.125 11V11.5C18.0886 11.5 18.0636 11.4911 18.0513 11.4853C18.0389 11.4796 18.0325 11.474 18.0293 11.4707C18.026 11.4675 18.0204 11.4611 18.0147 11.4487C18.0089 11.4364 18 11.4114 18 11.375H18.5H19C19 11.1186 18.8769 10.9041 18.7364 10.7636C18.5959 10.6231 18.3814 10.5 18.125 10.5V11ZM18.5 11.375H18C18 11.3657 18.0021 11.3491 18.0109 11.3294C18.0194 11.3102 18.0316 11.2941 18.045 11.2818C18.0694 11.2594 18.0972 11.25 18.125 11.25V11.75V12.25C18.5468 12.25 19 11.9256 19 11.375H18.5ZM18.125 11.75V11.25H14.375V11.75V12.25H18.125V11.75ZM14.375 11.75V11.25C14.3581 11.25 14.4032 11.2469 14.4532 11.2968C14.5031 11.3468 14.5 11.3919 14.5 11.375H14H13.5C13.5 11.5924 13.5672 11.8251 13.7461 12.0039C13.9249 12.1828 14.1576 12.25 14.375 12.25V11.75ZM14 11.375H14.5C14.5 11.4028 14.4906 11.4306 14.4682 11.455C14.4559 11.4684 14.4398 11.4806 14.4206 11.4891C14.4009 11.4979 14.3843 11.5 14.375 11.5V11V10.5C13.8244 10.5 13.5 10.9532 13.5 11.375H14ZM14.375 14V14.5H18.125V14V13.5H14.375V14ZM18.125 14V14.5C18.0886 14.5 18.0636 14.4911 18.0513 14.4853C18.0389 14.4796 18.0325 14.474 18.0293 14.4707C18.026 14.4675 18.0204 14.4611 18.0147 14.4487C18.0089 14.4364 18 14.4114 18 14.375H18.5H19C19 14.1186 18.8769 13.9041 18.7364 13.7636C18.5959 13.6231 18.3814 13.5 18.125 13.5V14ZM18.5 14.375H18C18 14.3657 18.0021 14.3491 18.0109 14.3294C18.0194 14.3102 18.0316 14.2941 18.045 14.2818C18.0694 14.2594 18.0972 14.25 18.125 14.25V14.75V15.25C18.5468 15.25 19 14.9256 19 14.375H18.5ZM18.125 14.75V14.25H14.375V14.75V15.25H18.125V14.75ZM14.375 14.75V14.25C14.3581 14.25 14.4032 14.2469 14.4532 14.2968C14.5031 14.3468 14.5 14.3919 14.5 14.375H14H13.5C13.5 14.5924 13.5672 14.8251 13.7461 15.0039C13.9249 15.1828 14.1576 15.25 14.375 15.25V14.75ZM14 14.375H14.5C14.5 14.4028 14.4906 14.4306 14.4682 14.455C14.4559 14.4684 14.4398 14.4806 14.4206 14.4891C14.4009 14.4979 14.3843 14.5 14.375 14.5V14V13.5C13.8244 13.5 13.5 13.9532 13.5 14.375H14ZM16.8594 22.7188L16.3758 22.5915L15.6727 25.2634L16.1562 25.3906L16.6398 25.5179L17.3429 22.846L16.8594 22.7188ZM16.1562 25.3906L15.6766 25.2495C15.5052 25.8322 14.9516 26.25 14.3281 26.25V26.75V27.25C15.3922 27.25 16.3386 26.5428 16.6359 25.5317L16.1562 25.3906ZM14.3281 26.75V26.25H14V26.75V27.25H14.3281V26.75ZM14 26.75V26.25C13.9831 26.25 14.0282 26.2469 14.0782 26.2968C14.1281 26.3468 14.125 26.3919 14.125 26.375H13.625H13.125C13.125 26.5924 13.1922 26.8251 13.3711 27.0039C13.5499 27.1828 13.7826 27.25 14 27.25V26.75ZM13.625 26.375H14.125C14.125 26.4028 14.1156 26.4306 14.0932 26.455C14.0809 26.4684 14.0648 26.4806 14.0456 26.4891C14.0259 26.4979 14.0093 26.5 14 26.5V26V25.5C13.4494 25.5 13.125 25.9532 13.125 26.375H13.625ZM14 26V26.5H14.3281V26V25.5H14V26ZM14.3281 26V26.5C15.0677 26.5 15.682 26.024 15.8852 25.3468L15.4062 25.2031L14.9273 25.0595C14.8492 25.3198 14.6198 25.5 14.3281 25.5V26ZM15.4062 25.2031L15.8876 25.3383L16.6376 22.6664L16.1562 22.5312L15.6749 22.3961L14.9249 25.068L15.4062 25.2031ZM16.1562 22.5312L16.6413 22.6525C16.6716 22.5312 16.7739 22.4219 17 22.4219V21.9219V21.4219C16.3824 21.4219 15.8284 21.7813 15.6712 22.41L16.1562 22.5312ZM17 21.9219V22.4219C17.1622 22.4219 17.2776 22.5158 17.3118 22.6525L17.7969 22.5312L18.2819 22.41C18.1286 21.7967 17.5878 21.4219 17 21.4219V21.9219ZM17.7969 22.5312L17.3156 22.6668L18.2531 25.9949L18.7344 25.8594L19.2156 25.7238L18.2781 22.3957L17.7969 22.5312ZM18.7344 25.8594L19.1671 26.1099L20.1983 24.3286L19.7656 24.0781L19.3329 23.8276L18.3017 25.6089L18.7344 25.8594ZM19.7656 24.0781L20.2027 24.3209C20.3571 24.043 20.6197 23.875 20.9375 23.875V23.375V22.875C20.224 22.875 19.6429 23.2695 19.3285 23.8353L19.7656 24.0781ZM20.9375 23.375V23.875C21.195 23.875 21.4774 24.0315 21.6933 24.3555L22.1094 24.0781L22.5254 23.8008C22.1789 23.281 21.6175 22.875 20.9375 22.875V23.375ZM22.1094 24.0781L21.6716 24.3197L22.4216 25.679L22.8594 25.4375L23.2972 25.196L22.5472 23.8366L22.1094 24.0781ZM22.8594 25.4375L22.4354 25.7025C22.7403 26.1904 23.2604 26.5469 23.8438 26.5469V26.0469V25.5469C23.6771 25.5469 23.4472 25.4346 23.2834 25.1725L22.8594 25.4375ZM23.8438 26.0469V26.5469H26V26.0469V25.5469H23.8438V26.0469ZM26 26.0469V26.5469C25.9722 26.5469 25.9444 26.5375 25.92 26.5151C25.9066 26.5028 25.8944 26.4866 25.8859 26.4675C25.8771 26.4478 25.875 26.4312 25.875 26.4219H26.375H26.875C26.875 25.8713 26.4218 25.5469 26 25.5469V26.0469ZM26.375 26.4219H25.875C25.875 26.3855 25.8839 26.3605 25.8897 26.3481C25.8954 26.3358 25.901 26.3294 25.9043 26.3261C25.9075 26.3229 25.9139 26.3173 25.9263 26.3116C25.9386 26.3058 25.9636 26.2969 26 26.2969V26.7969V27.2969C26.2564 27.2969 26.4709 27.1737 26.6114 27.0332C26.7519 26.8928 26.875 26.6782 26.875 26.4219H26.375ZM26 26.7969V26.2969H23.8438V26.7969V27.2969H26V26.7969ZM23.8438 26.7969V26.2969C23.3683 26.2969 22.8828 26.0201 22.6434 25.5754L22.2031 25.8125L21.7629 26.0496C22.1797 26.8236 23.0067 27.2969 23.8438 27.2969V26.7969ZM22.2031 25.8125L22.6409 25.571L21.8909 24.2116L21.4531 24.4531L21.0153 24.6947L21.7653 26.054L22.2031 25.8125ZM21.4531 24.4531L21.8531 24.1531C21.6805 23.9229 21.3633 23.625 20.9375 23.625V24.125V24.625C20.9053 24.625 20.9038 24.6136 20.9355 24.6348C20.9664 24.6553 21.0089 24.6941 21.0531 24.7531L21.4531 24.4531ZM20.9375 24.125V23.625C20.4875 23.625 20.1407 23.8974 19.9747 24.2295L20.4219 24.4531L20.8691 24.6767C20.8792 24.6564 20.8928 24.6425 20.9043 24.6348C20.9139 24.6284 20.9235 24.625 20.9375 24.625V24.125ZM20.4219 24.4531L19.9922 24.1974L18.8204 26.1661L19.25 26.4219L19.6796 26.6776L20.8515 24.7089L20.4219 24.4531ZM19.25 26.4219L18.7858 26.2362C18.7852 26.2375 18.7862 26.2349 18.7894 26.2315C18.792 26.2287 18.7925 26.2293 18.7875 26.2319C18.775 26.2385 18.742 26.25 18.6875 26.25V26.75V27.25C19.0324 27.25 19.5148 27.1061 19.7142 26.6076L19.25 26.4219ZM18.6875 26.75V26.25C18.6543 26.25 18.6175 26.2377 18.5915 26.2186C18.5677 26.201 18.5701 26.1918 18.5713 26.1991L18.0781 26.2812L17.5849 26.3634C17.6813 26.9418 18.2234 27.25 18.6875 27.25V26.75ZM18.0781 26.2812L18.5601 26.1481L17.5757 22.5856L17.0938 22.7188L16.6118 22.8519L17.5962 26.4144L18.0781 26.2812ZM17.0938 22.7188H17.5938C17.5938 22.5327 17.5058 22.3885 17.418 22.3007C17.3303 22.213 17.1861 22.125 17 22.125V22.625V23.125C16.8608 23.125 16.7635 23.0604 16.7109 23.0079C16.6583 22.9553 16.5938 22.8579 16.5938 22.7188H17.0938ZM17 22.625V22.125C16.7729 22.125 16.3594 22.2719 16.3594 22.7188H16.8594H17.3594C17.3594 22.8718 17.2809 22.9895 17.1945 23.0543C17.1113 23.1167 17.0331 23.125 17 23.125V22.625Z" fill="#004773"/>
</svg>
