<svg width="14" height="14" viewBox="0 0 14 14" fill="none" xmlns="http://www.w3.org/2000/svg">
<path d="M6.75 4.25C8.26878 4.25 9.5 5.48122 9.5 7V11C9.5 12.5188 8.26878 13.75 6.75 13.75H2.75C1.23122 13.75 0 12.5188 0 11V7C0 5.48122 1.23122 4.25 2.75 4.25H6.75ZM2.75 5.75C2.05964 5.75 1.5 6.30964 1.5 7V11C1.5 11.6904 2.05964 12.25 2.75 12.25H6.75C7.44036 12.25 8 11.6904 8 11V7C8 6.30964 7.44036 5.75 6.75 5.75H2.75ZM10.75 0.25C12.2688 0.25 13.5 1.48122 13.5 3V7C13.5 8.51878 12.2688 9.75 10.75 9.75C10.3358 9.75 10 9.41421 10 9C10 8.58579 10.3358 8.25 10.75 8.25C11.4404 8.25 12 7.69036 12 7V3C12 2.30964 11.4404 1.75 10.75 1.75H6.75C6.05964 1.75 5.5 2.30964 5.5 3C5.5 3.41421 5.16421 3.75 4.75 3.75C4.33579 3.75 4 3.41421 4 3C4 1.48122 5.23122 0.25 6.75 0.25H10.75Z" fill="#004773"/>
</svg>
