<svg width="33" height="32" viewBox="0 0 33 32" fill="none" xmlns="http://www.w3.org/2000/svg">
<path d="M2.4987 13.333C6.27648 12.4441 12.7654 11.8663 11.1654 16.6663C9.16536 22.6663 9.83203 21.333 11.1654 23.9997C12.232 26.133 11.6098 28.4441 11.1654 29.333M7.16536 5.33301C9.16536 4.88856 13.832 4.53301 16.4987 6.66634C19.832 9.33301 19.1654 13.333 28.4987 7.99968M31.1654 15.9997C31.1654 24.0998 24.5989 30.6663 16.4987 30.6663C8.39852 30.6663 1.83203 24.0998 1.83203 15.9997C1.83203 7.8995 8.39852 1.33301 16.4987 1.33301C24.5989 1.33301 31.1654 7.8995 31.1654 15.9997ZM19.6016 16.3984C24.2683 15.7317 25.832 15.333 24.4987 18.6664C23.2607 21.7613 19.6016 27.954 16.9349 21.7317C16.2683 20.1762 15.8683 16.9317 19.6016 16.3984Z" stroke="#1D1D1D" stroke-width="2" stroke-linecap="round"/>
</svg>
