<svg width="16" height="18" viewBox="0 0 16 18" fill="none" xmlns="http://www.w3.org/2000/svg">
<path d="M0.857143 1.40625C0.382143 1.40625 0 1.78242 0 2.25C0 2.71758 0.382143 3.09375 0.857143 3.09375H9.42857C9.90357 3.09375 10.2857 2.71758 10.2857 2.25C10.2857 1.78242 9.90357 1.40625 9.42857 1.40625H0.857143ZM0.857143 5.90625C0.382143 5.90625 0 6.28242 0 6.75C0 7.21758 0.382143 7.59375 0.857143 7.59375H15.1429C15.6179 7.59375 16 7.21758 16 6.75C16 6.28242 15.6179 5.90625 15.1429 5.90625H0.857143ZM0 11.25C0 11.7176 0.382143 12.0938 0.857143 12.0938H9.42857C9.90357 12.0938 10.2857 11.7176 10.2857 11.25C10.2857 10.7824 9.90357 10.4062 9.42857 10.4062H0.857143C0.382143 10.4062 0 10.7824 0 11.25ZM0.857143 14.9062C0.382143 14.9062 0 15.2824 0 15.75C0 16.2176 0.382143 16.5938 0.857143 16.5938H15.1429C15.6179 16.5938 16 16.2176 16 15.75C16 15.2824 15.6179 14.9062 15.1429 14.9062H0.857143Z" fill="currentColor"/>
</svg>
