<svg width="93" height="40" viewBox="0 0 93 40" fill="none" xmlns="http://www.w3.org/2000/svg">
<path d="M6.40039 0.5H86.5996C87.728 0.5 88.5446 0.500287 89.1865 0.552734C89.8226 0.604706 90.2433 0.705752 90.5889 0.881836C91.2474 1.21738 91.7826 1.75262 92.1182 2.41113C92.2942 2.75672 92.3953 3.17741 92.4473 3.81348C92.4997 4.4554 92.5 5.27204 92.5 6.40039V33.5996C92.5 34.728 92.4997 35.5446 92.4473 36.1865C92.3953 36.8226 92.2942 37.2433 92.1182 37.5889C91.7826 38.2474 91.2474 38.7826 90.5889 39.1182C90.2433 39.2942 89.8226 39.3953 89.1865 39.4473C88.5446 39.4997 87.728 39.5 86.5996 39.5H6.40039C5.27204 39.5 4.4554 39.4997 3.81348 39.4473C3.17741 39.3953 2.75672 39.2942 2.41113 39.1182C1.75262 38.7826 1.21738 38.2474 0.881836 37.5889C0.705753 37.2433 0.604706 36.8226 0.552734 36.1865C0.500287 35.5446 0.5 34.728 0.5 33.5996V6.40039C0.5 5.27203 0.500287 4.4554 0.552734 3.81348C0.604706 3.17741 0.705753 2.75672 0.881836 2.41113C1.21738 1.75262 1.75262 1.21738 2.41113 0.881836C2.75672 0.705753 3.17741 0.604706 3.81348 0.552734C4.4554 0.500287 5.27204 0.5 6.40039 0.5Z" fill="white"/>
<path d="M6.40039 0.5H86.5996C87.728 0.5 88.5446 0.500287 89.1865 0.552734C89.8226 0.604706 90.2433 0.705752 90.5889 0.881836C91.2474 1.21738 91.7826 1.75262 92.1182 2.41113C92.2942 2.75672 92.3953 3.17741 92.4473 3.81348C92.4997 4.4554 92.5 5.27204 92.5 6.40039V33.5996C92.5 34.728 92.4997 35.5446 92.4473 36.1865C92.3953 36.8226 92.2942 37.2433 92.1182 37.5889C91.7826 38.2474 91.2474 38.7826 90.5889 39.1182C90.2433 39.2942 89.8226 39.3953 89.1865 39.4473C88.5446 39.4997 87.728 39.5 86.5996 39.5H6.40039C5.27204 39.5 4.4554 39.4997 3.81348 39.4473C3.17741 39.3953 2.75672 39.2942 2.41113 39.1182C1.75262 38.7826 1.21738 38.2474 0.881836 37.5889C0.705753 37.2433 0.604706 36.8226 0.552734 36.1865C0.500287 35.5446 0.5 34.728 0.5 33.5996V6.40039C0.5 5.27203 0.500287 4.4554 0.552734 3.81348C0.604706 3.17741 0.705753 2.75672 0.881836 2.41113C1.21738 1.75262 1.75262 1.21738 2.41113 0.881836C2.75672 0.705753 3.17741 0.604706 3.81348 0.552734C4.4554 0.500287 5.27204 0.5 6.40039 0.5Z" stroke="#004773"/>
<path d="M13 27.5C13 27.3125 13.1406 27.125 13.375 27.125H17.5C17.6875 25.6719 18.9531 24.5 20.5 24.5C22 24.5 23.2656 25.6719 23.4531 27.125H36.625C36.8125 27.125 37 27.3125 37 27.5C37 27.7344 36.8125 27.875 36.625 27.875H23.4531C23.2656 29.375 22 30.5 20.5 30.5C18.9531 30.5 17.6875 29.375 17.5 27.875H13.375C13.1406 27.875 13 27.7344 13 27.5ZM18.25 27.5C18.25 28.3438 18.6719 29.0469 19.375 29.4688C20.0312 29.8906 20.9219 29.8906 21.625 29.4688C22.2812 29.0469 22.75 28.3438 22.75 27.5C22.75 26.7031 22.2812 26 21.625 25.5781C20.9219 25.1562 20.0312 25.1562 19.375 25.5781C18.6719 26 18.25 26.7031 18.25 27.5ZM27.25 20C27.25 20.8438 27.6719 21.5469 28.375 21.9688C29.0312 22.3906 29.9219 22.3906 30.625 21.9688C31.2812 21.5469 31.75 20.8438 31.75 20C31.75 19.2031 31.2812 18.5 30.625 18.0781C29.9219 17.6562 29.0312 17.6562 28.375 18.0781C27.6719 18.5 27.25 19.2031 27.25 20ZM29.5 17C31 17 32.2656 18.1719 32.4531 19.625H36.625C36.8125 19.625 37 19.8125 37 20C37 20.2344 36.8125 20.375 36.625 20.375H32.4531C32.2656 21.875 31 23 29.5 23C27.9531 23 26.6875 21.875 26.5 20.375H13.375C13.1406 20.375 13 20.2344 13 20C13 19.8125 13.1406 19.625 13.375 19.625H26.5C26.6875 18.1719 27.9531 17 29.5 17ZM22 14.75C22.7969 14.75 23.5 14.3281 23.9219 13.625C24.3438 12.9688 24.3438 12.0781 23.9219 11.375C23.5 10.7188 22.7969 10.25 22 10.25C21.1562 10.25 20.4531 10.7188 20.0312 11.375C19.6094 12.0781 19.6094 12.9688 20.0312 13.625C20.4531 14.3281 21.1562 14.75 22 14.75ZM24.9531 12.125H36.625C36.8125 12.125 37 12.3125 37 12.5C37 12.7344 36.8125 12.875 36.625 12.875H24.9531C24.7656 14.375 23.5 15.5 22 15.5C20.4531 15.5 19.1875 14.375 19 12.875H13.375C13.1406 12.875 13 12.7344 13 12.5C13 12.3125 13.1406 12.125 13.375 12.125H19C19.1875 10.6719 20.4531 9.5 22 9.5C23.5 9.5 24.7656 10.6719 24.9531 12.125Z" fill="#004773"/>
<path d="M47.7109 20.1797H43.1328V25H41.1562V13.625H48.3828V15.2188H43.1328V18.6016H47.7109V20.1797ZM51.7891 25H49.8906V16.5469H51.7891V25ZM49.7734 14.3516C49.7734 14.0599 49.8646 13.8177 50.0469 13.625C50.2344 13.4323 50.5 13.3359 50.8438 13.3359C51.1875 13.3359 51.4531 13.4323 51.6406 13.625C51.8281 13.8177 51.9219 14.0599 51.9219 14.3516C51.9219 14.638 51.8281 14.8776 51.6406 15.0703C51.4531 15.2578 51.1875 15.3516 50.8438 15.3516C50.5 15.3516 50.2344 15.2578 50.0469 15.0703C49.8646 14.8776 49.7734 14.638 49.7734 14.3516ZM55.8828 25H53.9844V13H55.8828V25ZM60.3359 14.4922V16.5469H61.8281V17.9531H60.3359V22.6719C60.3359 22.9948 60.3984 23.2292 60.5234 23.375C60.6536 23.5156 60.8828 23.5859 61.2109 23.5859C61.4297 23.5859 61.651 23.5599 61.875 23.5078V24.9766C61.4427 25.0964 61.026 25.1562 60.625 25.1562C59.1667 25.1562 58.4375 24.3516 58.4375 22.7422V17.9531H57.0469V16.5469H58.4375V14.4922H60.3359ZM67.0078 25.1562C65.8047 25.1562 64.8281 24.7786 64.0781 24.0234C63.3333 23.263 62.9609 22.2526 62.9609 20.9922V20.7578C62.9609 19.9141 63.1224 19.1615 63.4453 18.5C63.7734 17.8333 64.2318 17.3151 64.8203 16.9453C65.4089 16.5755 66.0651 16.3906 66.7891 16.3906C67.9401 16.3906 68.8281 16.7578 69.4531 17.4922C70.0833 18.2266 70.3984 19.2656 70.3984 20.6094V21.375H64.875C64.9323 22.0729 65.1641 22.625 65.5703 23.0312C65.9818 23.4375 66.4974 23.6406 67.1172 23.6406C67.987 23.6406 68.6953 23.2891 69.2422 22.5859L70.2656 23.5625C69.9271 24.0677 69.474 24.4609 68.9062 24.7422C68.3438 25.0182 67.7109 25.1562 67.0078 25.1562ZM66.7812 17.9141C66.2604 17.9141 65.8385 18.0964 65.5156 18.4609C65.1979 18.8255 64.9948 19.3333 64.9062 19.9844H68.5234V19.8438C68.4818 19.2083 68.3125 18.7292 68.0156 18.4062C67.7188 18.0781 67.3073 17.9141 66.7812 17.9141ZM76.3047 18.2812C76.0547 18.2396 75.7969 18.2188 75.5312 18.2188C74.6615 18.2188 74.0755 18.5521 73.7734 19.2188V25H71.875V16.5469H73.6875L73.7344 17.4922C74.1927 16.7578 74.8281 16.3906 75.6406 16.3906C75.9115 16.3906 76.1354 16.4271 76.3125 16.5L76.3047 18.2812Z" fill="#004773"/>
</svg>
