<svg width="24" height="28" viewBox="0 0 24 28" fill="none" xmlns="http://www.w3.org/2000/svg">
<path d="M12 0.972717C18.6274 0.972721 23.9999 6.34537 24 12.9727C24 19.6001 18.6274 24.9727 12 24.9727C9.5588 24.9727 7.28942 24.2414 5.39453 22.9893C5.34472 23.1008 5.27606 23.2064 5.18457 23.2979L1.75586 26.7256L1.67773 26.7969C1.27374 27.1263 0.678292 27.1022 0.301758 26.7256C-0.0747671 26.3491 -0.0989204 25.7537 0.230469 25.3497L0.301758 25.2715L3.72949 21.8428C3.76073 21.8116 3.79411 21.7833 3.82812 21.7569C1.47414 19.566 0 16.4422 0 12.9727C5.64655e-05 6.34537 5.37264 0.972717 12 0.972717ZM12 3.03033C6.50877 3.03033 2.05767 7.4815 2.05762 12.9727C2.05762 18.464 6.50873 22.9161 12 22.9161C17.4913 22.9161 21.9424 18.464 21.9424 12.9727C21.9423 7.4815 17.4912 3.03034 12 3.03033ZM13.7139 17.7725C14.2819 17.7725 14.7432 18.2338 14.7432 18.8018C14.7429 19.3697 14.2818 19.8301 13.7139 19.8301H10.2861C9.71822 19.8301 9.25708 19.3697 9.25684 18.8018C9.25684 18.2338 9.71807 17.7725 10.2861 17.7725H13.7139ZM12 6.45905C14.8403 6.45905 17.1426 8.76131 17.1426 11.6016C17.1425 13.4354 16.182 15.0437 14.7373 15.9542C14.7408 15.9885 14.7432 16.0234 14.7432 16.0587C14.7431 16.6267 14.2819 17.087 13.7139 17.087H10.2861C9.71811 17.087 9.25691 16.6267 9.25684 16.0587C9.25684 16.0234 9.25827 15.9885 9.26172 15.9542C7.81738 15.0436 6.8575 13.4351 6.85742 11.6016C6.85742 8.76131 9.15969 6.45905 12 6.45905ZM12 8.51569C10.2958 8.51569 8.91406 9.89744 8.91406 11.6016C8.91418 13.3057 10.2959 14.6876 12 14.6876C13.7041 14.6876 15.0858 13.3057 15.0859 11.6016C15.0859 9.89744 13.7042 8.51569 12 8.51569Z" fill="#4DB467"/>
</svg>
