<svg width="16" height="16" viewBox="0 0 16 16" fill="currentColor" xmlns="http://www.w3.org/2000/svg">
<g mask="url(#mask0_5156_3772)">
<path d="M8 0C12.4063 0 16 3.59375 16 8C16 12.4375 12.4063 16 8 16C3.5625 16 0 12.4375 0 8C0 3.59375 3.5625 0 8 0ZM8 15C8.5 15 9.25 14.5625 9.90627 13.2187C10.2187 12.5937 10.5 11.8437 10.6563 11H5.3125C5.46875 11.8437 5.75 12.5937 6.0625 13.2187C6.71873 14.5625 7.46873 15 8 15ZM5.125 10H10.8437C10.9375 9.375 11 8.71873 11 8C11 7.31253 10.9375 6.65625 10.8437 6H5.125C5.03125 6.65625 5 7.31253 5 8C5 8.71873 5.03125 9.375 5.125 10ZM10.6563 5C10.5 4.15625 10.2187 3.4375 9.90627 2.8125C9.25 1.46875 8.5 1 8 1C7.46873 1 6.71873 1.46875 6.0625 2.8125C5.75 3.4375 5.46875 4.15625 5.3125 5H10.6563ZM11.8437 6C11.9375 6.65625 12 7.31253 12 8C12 8.71873 11.9375 9.375 11.8437 10H14.6875C14.875 9.375 15 8.71873 15 8C15 7.31253 14.875 6.65625 14.6875 6H11.8437ZM10.2187 1.375C10.875 2.25 11.4063 3.53125 11.6875 5H14.3125C13.5 3.3125 12.0313 2 10.2187 1.375ZM5.75 1.375C3.9375 2 2.46875 3.3125 1.65625 5H4.28125C4.5625 3.53125 5.09375 2.25 5.75 1.375ZM1 8C1 8.71873 1.09375 9.375 1.28125 10H4.125C4.03125 9.375 4 8.71873 4 8C4 7.31253 4.03125 6.65625 4.125 6H1.28125C1.09375 6.65625 1 7.31253 1 8ZM14.3125 11H11.6875C11.4063 12.5 10.875 13.75 10.2187 14.6563C12.0313 14.0313 13.5 12.7187 14.3125 11ZM4.28125 11H1.65625C2.46875 12.7187 3.9375 14.0313 5.75 14.6563C5.09375 13.75 4.5625 12.5 4.28125 11Z" fill="currentColor"/>
</g>
</svg>