<svg width="40" height="40" viewBox="0 0 40 40" fill="none" xmlns="http://www.w3.org/2000/svg">
<path d="M6.40039 0.5H33.5996C34.728 0.5 35.5446 0.500287 36.1865 0.552734C36.8226 0.604706 37.2433 0.705753 37.5889 0.881836C38.2474 1.21738 38.7826 1.75262 39.1182 2.41113C39.2942 2.75672 39.3953 3.17741 39.4473 3.81348C39.4997 4.4554 39.5 5.27204 39.5 6.40039V33.5996C39.5 34.728 39.4997 35.5446 39.4473 36.1865C39.3953 36.8226 39.2942 37.2433 39.1182 37.5889C38.7826 38.2474 38.2474 38.7826 37.5889 39.1182C37.2433 39.2942 36.8226 39.3953 36.1865 39.4473C35.5446 39.4997 34.728 39.5 33.5996 39.5H6.40039C5.27203 39.5 4.4554 39.4997 3.81348 39.4473C3.17741 39.3953 2.75672 39.2942 2.41113 39.1182C1.75262 38.7826 1.21738 38.2474 0.881836 37.5889C0.705753 37.2433 0.604706 36.8226 0.552734 36.1865C0.500287 35.5446 0.5 34.728 0.5 33.5996V6.40039C0.5 5.27203 0.500287 4.4554 0.552734 3.81348C0.604706 3.17741 0.705753 2.75672 0.881836 2.41113C1.21738 1.75262 1.75262 1.21738 2.41113 0.881836C2.75672 0.705753 3.17741 0.604706 3.81348 0.552734C4.13455 0.526501 4.49928 0.513487 4.9248 0.506836L6.40039 0.5Z" fill="white"/>
<path d="M6.40039 0.5H33.5996C34.728 0.5 35.5446 0.500287 36.1865 0.552734C36.8226 0.604706 37.2433 0.705753 37.5889 0.881836C38.2474 1.21738 38.7826 1.75262 39.1182 2.41113C39.2942 2.75672 39.3953 3.17741 39.4473 3.81348C39.4997 4.4554 39.5 5.27204 39.5 6.40039V33.5996C39.5 34.728 39.4997 35.5446 39.4473 36.1865C39.3953 36.8226 39.2942 37.2433 39.1182 37.5889C38.7826 38.2474 38.2474 38.7826 37.5889 39.1182C37.2433 39.2942 36.8226 39.3953 36.1865 39.4473C35.5446 39.4997 34.728 39.5 33.5996 39.5H6.40039C5.27203 39.5 4.4554 39.4997 3.81348 39.4473C3.17741 39.3953 2.75672 39.2942 2.41113 39.1182C1.75262 38.7826 1.21738 38.2474 0.881836 37.5889C0.705753 37.2433 0.604706 36.8226 0.552734 36.1865C0.500287 35.5446 0.5 34.728 0.5 33.5996V6.40039C0.5 5.27203 0.500287 4.4554 0.552734 3.81348C0.604706 3.17741 0.705753 2.75672 0.881836 2.41113C1.21738 1.75262 1.75262 1.21738 2.41113 0.881836C2.75672 0.705753 3.17741 0.604706 3.81348 0.552734C4.13455 0.526501 4.49928 0.513487 4.9248 0.506836L6.40039 0.5Z" stroke="#004773"/>
<path d="M12.5 13.7C12.5 13.28 12.5 13.0699 12.5817 12.9095C12.6537 12.7684 12.7684 12.6537 12.9095 12.5817C13.0699 12.5 13.28 12.5 13.7 12.5H17.3C17.72 12.5 17.9301 12.5 18.0905 12.5817C18.2316 12.6537 18.3464 12.7684 18.4183 12.9095C18.5 13.0699 18.5 13.28 18.5 13.7V17.3C18.5 17.72 18.5 17.9301 18.4183 18.0905C18.3464 18.2316 18.2316 18.3464 18.0905 18.4183C17.9301 18.5 17.72 18.5 17.3 18.5H13.7C13.28 18.5 13.0699 18.5 12.9095 18.4183C12.7684 18.3464 12.6537 18.2316 12.5817 18.0905C12.5 17.9301 12.5 17.72 12.5 17.3V13.7Z" stroke="#004773" stroke-width="2"/>
<path d="M12.5 22.7C12.5 22.28 12.5 22.0699 12.5817 21.9095C12.6537 21.7684 12.7684 21.6537 12.9095 21.5817C13.0699 21.5 13.28 21.5 13.7 21.5H17.3C17.72 21.5 17.9301 21.5 18.0905 21.5817C18.2316 21.6537 18.3464 21.7684 18.4183 21.9095C18.5 22.0699 18.5 22.28 18.5 22.7V26.3C18.5 26.72 18.5 26.9301 18.4183 27.0905C18.3464 27.2316 18.2316 27.3463 18.0905 27.4183C17.9301 27.5 17.72 27.5 17.3 27.5H13.7C13.28 27.5 13.0699 27.5 12.9095 27.4183C12.7684 27.3463 12.6537 27.2316 12.5817 27.0905C12.5 26.9301 12.5 26.72 12.5 26.3V22.7Z" stroke="#004773" stroke-width="2"/>
<path d="M21.5 13.7C21.5 13.28 21.5 13.0699 21.5817 12.9095C21.6537 12.7684 21.7684 12.6537 21.9095 12.5817C22.0699 12.5 22.28 12.5 22.7 12.5H26.3C26.72 12.5 26.9301 12.5 27.0905 12.5817C27.2316 12.6537 27.3463 12.7684 27.4183 12.9095C27.5 13.0699 27.5 13.28 27.5 13.7V17.3C27.5 17.72 27.5 17.9301 27.4183 18.0905C27.3463 18.2316 27.2316 18.3464 27.0905 18.4183C26.9301 18.5 26.72 18.5 26.3 18.5H22.7C22.28 18.5 22.0699 18.5 21.9095 18.4183C21.7684 18.3464 21.6537 18.2316 21.5817 18.0905C21.5 17.9301 21.5 17.72 21.5 17.3V13.7Z" stroke="#004773" stroke-width="2"/>
<path d="M21.5 22.7C21.5 22.28 21.5 22.0699 21.5817 21.9095C21.6537 21.7684 21.7684 21.6537 21.9095 21.5817C22.0699 21.5 22.28 21.5 22.7 21.5H26.3C26.72 21.5 26.9301 21.5 27.0905 21.5817C27.2316 21.6537 27.3463 21.7684 27.4183 21.9095C27.5 22.0699 27.5 22.28 27.5 22.7V26.3C27.5 26.72 27.5 26.9301 27.4183 27.0905C27.3463 27.2316 27.2316 27.3463 27.0905 27.4183C26.9301 27.5 26.72 27.5 26.3 27.5H22.7C22.28 27.5 22.0699 27.5 21.9095 27.4183C21.7684 27.3463 21.6537 27.2316 21.5817 27.0905C21.5 26.9301 21.5 26.72 21.5 26.3V22.7Z" stroke="#004773" stroke-width="2"/>
</svg>
