<svg width="40" height="40" viewBox="0 0 40 40" fill="none" xmlns="http://www.w3.org/2000/svg">
<path d="M0 6.4C0 4.15979 0 3.03969 0.435974 2.18404C0.819467 1.43139 1.43139 0.819467 2.18404 0.435974C3.03969 0 4.15979 0 6.4 0H33.6C35.8402 0 36.9603 0 37.816 0.435974C38.5686 0.819467 39.1805 1.43139 39.564 2.18404C40 3.03969 40 4.15979 40 6.4V33.6C40 35.8402 40 36.9603 39.564 37.816C39.1805 38.5686 38.5686 39.1805 37.816 39.564C36.9603 40 35.8402 40 33.6 40H6.4C4.15979 40 3.03969 40 2.18404 39.564C1.43139 39.1805 0.819467 38.5686 0.435974 37.816C0 36.9603 0 35.8402 0 33.6V6.4Z" fill="#004773"/>
<path d="M12.5 13.7C12.5 13.28 12.5 13.0699 12.5817 12.9095C12.6537 12.7684 12.7684 12.6537 12.9095 12.5817C13.0699 12.5 13.28 12.5 13.7 12.5H17.3C17.72 12.5 17.9301 12.5 18.0905 12.5817C18.2316 12.6537 18.3464 12.7684 18.4183 12.9095C18.5 13.0699 18.5 13.28 18.5 13.7V17.3C18.5 17.72 18.5 17.9301 18.4183 18.0905C18.3464 18.2316 18.2316 18.3464 18.0905 18.4183C17.9301 18.5 17.72 18.5 17.3 18.5H13.7C13.28 18.5 13.0699 18.5 12.9095 18.4183C12.7684 18.3464 12.6537 18.2316 12.5817 18.0905C12.5 17.9301 12.5 17.72 12.5 17.3V13.7Z" stroke="white" stroke-width="2"/>
<path d="M12.5 22.7C12.5 22.28 12.5 22.0699 12.5817 21.9095C12.6537 21.7684 12.7684 21.6537 12.9095 21.5817C13.0699 21.5 13.28 21.5 13.7 21.5H17.3C17.72 21.5 17.9301 21.5 18.0905 21.5817C18.2316 21.6537 18.3464 21.7684 18.4183 21.9095C18.5 22.0699 18.5 22.28 18.5 22.7V26.3C18.5 26.72 18.5 26.9301 18.4183 27.0905C18.3464 27.2316 18.2316 27.3463 18.0905 27.4183C17.9301 27.5 17.72 27.5 17.3 27.5H13.7C13.28 27.5 13.0699 27.5 12.9095 27.4183C12.7684 27.3463 12.6537 27.2316 12.5817 27.0905C12.5 26.9301 12.5 26.72 12.5 26.3V22.7Z" stroke="white" stroke-width="2"/>
<path d="M21.5 13.7C21.5 13.28 21.5 13.0699 21.5817 12.9095C21.6537 12.7684 21.7684 12.6537 21.9095 12.5817C22.0699 12.5 22.28 12.5 22.7 12.5H26.3C26.72 12.5 26.9301 12.5 27.0905 12.5817C27.2316 12.6537 27.3463 12.7684 27.4183 12.9095C27.5 13.0699 27.5 13.28 27.5 13.7V17.3C27.5 17.72 27.5 17.9301 27.4183 18.0905C27.3463 18.2316 27.2316 18.3464 27.0905 18.4183C26.9301 18.5 26.72 18.5 26.3 18.5H22.7C22.28 18.5 22.0699 18.5 21.9095 18.4183C21.7684 18.3464 21.6537 18.2316 21.5817 18.0905C21.5 17.9301 21.5 17.72 21.5 17.3V13.7Z" stroke="white" stroke-width="2"/>
<path d="M21.5 22.7C21.5 22.28 21.5 22.0699 21.5817 21.9095C21.6537 21.7684 21.7684 21.6537 21.9095 21.5817C22.0699 21.5 22.28 21.5 22.7 21.5H26.3C26.72 21.5 26.9301 21.5 27.0905 21.5817C27.2316 21.6537 27.3463 21.7684 27.4183 21.9095C27.5 22.0699 27.5 22.28 27.5 22.7V26.3C27.5 26.72 27.5 26.9301 27.4183 27.0905C27.3463 27.2316 27.2316 27.3463 27.0905 27.4183C26.9301 27.5 26.72 27.5 26.3 27.5H22.7C22.28 27.5 22.0699 27.5 21.9095 27.4183C21.7684 27.3463 21.6537 27.2316 21.5817 27.0905C21.5 26.9301 21.5 26.72 21.5 26.3V22.7Z" stroke="white" stroke-width="2"/>
</svg>
