<svg width="24" height="32" viewBox="0 0 24 32" fill="none" xmlns="http://www.w3.org/2000/svg">
<path d="M22 13.6373C22.0001 12.1317 21.4453 10.716 20.4382 9.65123C19.4308 8.58652 18.0917 8.00011 16.6673 8.00011C15.2429 8.00011 13.904 8.58652 12.8968 9.65111L12.4987 10.0717L11.6602 10.9571L8.28325 14.5273C8.17226 14.645 8.10993 14.8044 8.10993 14.9705C8.10993 15.1367 8.17226 15.296 8.28325 15.4137C8.33819 15.472 8.40352 15.5183 8.47548 15.5498C8.54744 15.5813 8.62459 15.5974 8.70247 15.5972C8.78019 15.5975 8.85718 15.5814 8.929 15.5501C9.00083 15.5187 9.06607 15.4726 9.12096 15.4145L9.15281 15.3801L13.7349 10.5369C14.5183 9.7087 15.5599 9.25262 16.6678 9.25262C17.7757 9.25262 18.817 9.70859 19.6004 10.5366C21.2175 12.2459 21.2175 15.0274 19.6006 16.737L13.3156 23.381C13.0992 23.6099 12.8107 23.7396 12.4991 23.7465C12.192 23.7418 11.8989 23.6106 11.682 23.3808L5.39792 16.7383C3.78961 15.0319 3.7895 12.2555 5.39771 10.549C6.18169 9.71712 7.2252 9.25902 8.33592 9.25902C9.06882 9.25902 9.77242 9.45995 10.392 9.83498C10.7316 9.93904 11.0753 9.70724 11.1482 9.36319C11.2131 9.05663 11.0417 8.80687 10.8393 8.66857C10.8277 8.65643 10.8144 8.64634 10.7998 8.63871C10.0468 8.22147 9.20463 8 8.33008 8C6.90578 8 5.56665 8.5864 4.55936 9.651C2.48021 11.849 2.48021 15.4252 4.55936 17.6231L5.23716 18.3396L5.24459 18.3542C5.27358 18.4115 5.31042 18.463 5.35524 18.5088L10.8016 24.2662C11.2491 24.7392 11.8438 24.9998 12.485 24.9998L12.4999 24.9993L12.5195 25C12.8309 25.0008 13.1393 24.9364 13.427 24.8104C13.7147 24.6844 13.9758 24.4993 14.1954 24.266L19.6423 18.5088L19.6212 18.4865L20.438 17.6231C21.4453 16.5585 22 15.1429 22 13.6373Z" fill="currentColor"/>
</svg>
