<svg width="39" height="37" viewBox="0 0 39 37" fill="none" xmlns="http://www.w3.org/2000/svg">
<path d="M0 2.73438C0 1.62981 0.895431 0.734375 2 0.734375H37C38.1046 0.734375 39 1.62981 39 2.73438V34.7344C39 35.8389 38.1046 36.7344 37 36.7344H2C0.89543 36.7344 0 35.8389 0 34.7344V2.73438Z" fill="#008522"/>
<path d="M10.8369 23.7344H9.11426V13.7812H10.8369V23.7344ZM16.4697 21.5674L18.999 13.7812H20.8994L17.3174 23.7344H15.6426L12.0742 13.7812H13.9678L16.4697 21.5674ZM22.0273 23.7344V13.7812H24.9668C25.8464 13.7812 26.6257 13.9772 27.3047 14.3691C27.9883 14.7611 28.5169 15.3171 28.8906 16.0371C29.2643 16.7572 29.4512 17.582 29.4512 18.5117V19.0107C29.4512 19.9541 29.262 20.7835 28.8838 21.499C28.5101 22.2145 27.9746 22.766 27.2773 23.1533C26.5846 23.5407 25.7894 23.7344 24.8916 23.7344H22.0273ZM23.7568 15.1758V22.3535H24.8848C25.7917 22.3535 26.4867 22.071 26.9697 21.5059C27.4574 20.9362 27.7057 20.1204 27.7148 19.0586V18.5049C27.7148 17.4248 27.4801 16.5999 27.0107 16.0303C26.5413 15.4606 25.86 15.1758 24.9668 15.1758H23.7568Z" fill="white"/>
</svg>
