<svg width="24" height="24" viewBox="0 0 24 24" fill="none" xmlns="http://www.w3.org/2000/svg">
<path d="M20.96 4.75757C21.1876 4.52916 21.5437 4.46856 21.8389 4.6228C22.1761 4.79912 22.3274 5.20095 22.1914 5.5564C21.7812 6.62834 21.4501 7.75455 21.0176 9.00562C20.5965 10.2235 20.0997 11.491 19.3984 12.6785C18.0167 15.0182 15.8682 16.9994 12.0771 17.8376L11.7051 17.9148C10.1589 18.2176 8.00398 17.9133 6.34668 17.5017C5.57901 17.311 4.87639 17.084 4.34473 16.8611C3.74671 17.8574 3.38742 18.7678 3.2207 19.4626L1.76172 19.113C1.97179 18.2374 2.41587 17.135 3.14062 15.9568C3.09406 15.8463 3.06454 15.717 3.06934 15.5808C2.52458 13.4689 2.37814 9.9933 4.96875 7.45483L5.22754 7.21069C7.94734 4.76584 11.8229 4.5423 14.9717 4.67358C15.7969 4.708 16.5891 4.76791 17.3125 4.82495C18.0422 4.88248 18.6916 4.93608 19.2568 4.96069C19.8286 4.98559 20.2641 4.97835 20.5732 4.92944C20.9161 4.87517 20.9171 4.79835 20.8711 4.86597L20.96 4.75757ZM14.9092 6.17261C11.7786 6.04208 8.46811 6.31692 6.23145 8.32593L6.01855 8.52612C4.29639 10.2136 4.06865 12.4883 4.33398 14.2849C6.71948 11.3744 10.8493 8.43382 17.3906 7.54468C17.8009 7.48914 18.1786 7.77696 18.2344 8.18726C18.2899 8.59751 18.0021 8.97524 17.5918 9.03101C11.1635 9.90489 7.30954 12.861 5.21191 15.5925C5.61754 15.7433 6.13119 15.9024 6.70801 16.0457C8.3148 16.4447 10.2051 16.6806 11.417 16.4431L11.7471 16.3748C15.104 15.6342 16.919 13.9282 18.1074 11.9158C18.7327 10.857 19.191 9.69996 19.6006 8.51538C19.8314 7.84784 20.0551 7.14557 20.2832 6.46069C19.9441 6.4788 19.5744 6.4764 19.1914 6.45972C18.593 6.43366 17.9106 6.37654 17.1943 6.32007C16.472 6.26312 15.7042 6.20576 14.9092 6.17261Z" fill="#008522"/>
</svg>
