<svg width="40" height="40" viewBox="0 0 40 40" fill="none" xmlns="http://www.w3.org/2000/svg">
<path d="M0 6.4C0 4.15979 0 3.03969 0.435974 2.18404C0.819467 1.43139 1.43139 0.819467 2.18404 0.435974C3.03969 0 4.15979 0 6.4 0H33.6C35.8402 0 36.9603 0 37.816 0.435974C38.5686 0.819467 39.1805 1.43139 39.564 2.18404C40 3.03969 40 4.15979 40 6.4V33.6C40 35.8402 40 36.9603 39.564 37.816C39.1805 38.5686 38.5686 39.1805 37.816 39.564C36.9603 40 35.8402 40 33.6 40H6.4C4.15979 40 3.03969 40 2.18404 39.564C1.43139 39.1805 0.819467 38.5686 0.435974 37.816C0 36.9603 0 35.8402 0 33.6V6.4Z" fill="#004773"/>
<path d="M14 14.75C13.5858 14.75 13.25 15.0858 13.25 15.5C13.25 15.9142 13.5858 16.25 14 16.25H14.0008C14.415 16.25 14.7507 15.9142 14.7507 15.5C14.7507 15.0858 14.415 14.75 14.0008 14.75H14Z" fill="white"/>
<path d="M14 19.25C13.5858 19.25 13.25 19.5858 13.25 20C13.25 20.4142 13.5858 20.75 14 20.75H14.0008C14.415 20.75 14.7507 20.4142 14.7507 20C14.7507 19.5858 14.415 19.25 14.0008 19.25H14Z" fill="white"/>
<path d="M14 23.75C13.5858 23.75 13.25 24.0858 13.25 24.5C13.25 24.9142 13.5858 25.25 14 25.25H14.0008C14.415 25.25 14.7507 24.9142 14.7507 24.5C14.7507 24.0858 14.415 23.75 14.0008 23.75H14Z" fill="white"/>
<path d="M17 14.75C16.5858 14.75 16.25 15.0858 16.25 15.5C16.25 15.9142 16.5858 16.25 17 16.25H26C26.4142 16.25 26.75 15.9142 26.75 15.5C26.75 15.0858 26.4142 14.75 26 14.75H17Z" fill="white"/>
<path d="M17 19.25C16.5858 19.25 16.25 19.5858 16.25 20C16.25 20.4142 16.5858 20.75 17 20.75H26C26.4142 20.75 26.75 20.4142 26.75 20C26.75 19.5858 26.4142 19.25 26 19.25H17Z" fill="white"/>
<path d="M17 23.75C16.5858 23.75 16.25 24.0858 16.25 24.5C16.25 24.9142 16.5858 25.25 17 25.25H26C26.4142 25.25 26.75 24.9142 26.75 24.5C26.75 24.0858 26.4142 23.75 26 23.75H17Z" fill="white"/>
</svg>
