<svg width="40" height="40" viewBox="0 0 40 40" fill="none" xmlns="http://www.w3.org/2000/svg">
<path d="M6.40039 0.5H33.5996C34.728 0.5 35.5446 0.500287 36.1865 0.552734C36.8226 0.604706 37.2433 0.705753 37.5889 0.881836C38.2474 1.21738 38.7826 1.75262 39.1182 2.41113C39.2942 2.75672 39.3953 3.17741 39.4473 3.81348C39.4997 4.4554 39.5 5.27204 39.5 6.40039V33.5996C39.5 34.728 39.4997 35.5446 39.4473 36.1865C39.3953 36.8226 39.2942 37.2433 39.1182 37.5889C38.7826 38.2474 38.2474 38.7826 37.5889 39.1182C37.2433 39.2942 36.8226 39.3953 36.1865 39.4473C35.5446 39.4997 34.728 39.5 33.5996 39.5H6.40039C5.27203 39.5 4.4554 39.4997 3.81348 39.4473C3.17741 39.3953 2.75672 39.2942 2.41113 39.1182C1.75262 38.7826 1.21738 38.2474 0.881836 37.5889C0.705753 37.2433 0.604706 36.8226 0.552734 36.1865C0.500287 35.5446 0.5 34.728 0.5 33.5996V6.40039C0.5 5.27203 0.500287 4.4554 0.552734 3.81348C0.604706 3.17741 0.705753 2.75672 0.881836 2.41113C1.21738 1.75262 1.75262 1.21738 2.41113 0.881836C2.75672 0.705753 3.17741 0.604706 3.81348 0.552734C4.13455 0.526501 4.49928 0.513487 4.9248 0.506836L6.40039 0.5Z" fill="white"/>
<path d="M6.40039 0.5H33.5996C34.728 0.5 35.5446 0.500287 36.1865 0.552734C36.8226 0.604706 37.2433 0.705753 37.5889 0.881836C38.2474 1.21738 38.7826 1.75262 39.1182 2.41113C39.2942 2.75672 39.3953 3.17741 39.4473 3.81348C39.4997 4.4554 39.5 5.27204 39.5 6.40039V33.5996C39.5 34.728 39.4997 35.5446 39.4473 36.1865C39.3953 36.8226 39.2942 37.2433 39.1182 37.5889C38.7826 38.2474 38.2474 38.7826 37.5889 39.1182C37.2433 39.2942 36.8226 39.3953 36.1865 39.4473C35.5446 39.4997 34.728 39.5 33.5996 39.5H6.40039C5.27203 39.5 4.4554 39.4997 3.81348 39.4473C3.17741 39.3953 2.75672 39.2942 2.41113 39.1182C1.75262 38.7826 1.21738 38.2474 0.881836 37.5889C0.705753 37.2433 0.604706 36.8226 0.552734 36.1865C0.500287 35.5446 0.5 34.728 0.5 33.5996V6.40039C0.5 5.27203 0.500287 4.4554 0.552734 3.81348C0.604706 3.17741 0.705753 2.75672 0.881836 2.41113C1.21738 1.75262 1.75262 1.21738 2.41113 0.881836C2.75672 0.705753 3.17741 0.604706 3.81348 0.552734C4.13455 0.526501 4.49928 0.513487 4.9248 0.506836L6.40039 0.5Z" stroke="#004773"/>
<path d="M14 14.75C13.5858 14.75 13.25 15.0858 13.25 15.5C13.25 15.9142 13.5858 16.25 14 16.25H14.0008C14.415 16.25 14.7507 15.9142 14.7507 15.5C14.7507 15.0858 14.415 14.75 14.0008 14.75H14Z" fill="#004773"/>
<path d="M14 19.25C13.5858 19.25 13.25 19.5858 13.25 20C13.25 20.4142 13.5858 20.75 14 20.75H14.0008C14.415 20.75 14.7507 20.4142 14.7507 20C14.7507 19.5858 14.415 19.25 14.0008 19.25H14Z" fill="#004773"/>
<path d="M14 23.75C13.5858 23.75 13.25 24.0858 13.25 24.5C13.25 24.9142 13.5858 25.25 14 25.25H14.0008C14.415 25.25 14.7507 24.9142 14.7507 24.5C14.7507 24.0858 14.415 23.75 14.0008 23.75H14Z" fill="#004773"/>
<path d="M17 14.75C16.5858 14.75 16.25 15.0858 16.25 15.5C16.25 15.9142 16.5858 16.25 17 16.25H26C26.4142 16.25 26.75 15.9142 26.75 15.5C26.75 15.0858 26.4142 14.75 26 14.75H17Z" fill="#004773"/>
<path d="M17 19.25C16.5858 19.25 16.25 19.5858 16.25 20C16.25 20.4142 16.5858 20.75 17 20.75H26C26.4142 20.75 26.75 20.4142 26.75 20C26.75 19.5858 26.4142 19.25 26 19.25H17Z" fill="#004773"/>
<path d="M17 23.75C16.5858 23.75 16.25 24.0858 16.25 24.5C16.25 24.9142 16.5858 25.25 17 25.25H26C26.4142 25.25 26.75 24.9142 26.75 24.5C26.75 24.0858 26.4142 23.75 26 23.75H17Z" fill="#004773"/>
</svg>
