<svg width="41" height="40" viewBox="0 0 41 40" fill="none" xmlns="http://www.w3.org/2000/svg">
<rect x="1.16671" y="1" width="38" height="38" rx="19" fill="#0085D5"/>
<rect x="1.16671" y="1" width="38" height="38" rx="19" stroke="#F9F9F9" stroke-width="2"/>
<path d="M20.1458 17.0637C19.5614 17.0637 19.1022 16.4964 19.1022 15.8304C19.1022 15.1398 19.5823 14.5971 20.1458 14.5971C20.7303 14.5971 21.1895 15.1398 21.1895 15.8304C21.1895 16.5211 20.7303 17.0637 20.1458 17.0637ZM20.8973 12.5005C20.8973 12.0072 20.5633 11.6372 20.1458 11.6372C19.7284 11.6372 19.3944 12.0319 19.3944 12.5005C19.3944 12.9938 19.7284 13.3885 20.1458 13.3885C20.5633 13.3638 20.8973 12.9692 20.8973 12.5005ZM20.6677 9.78725C20.6677 9.44193 20.4381 9.1706 20.1458 9.1706C19.8536 9.1706 19.624 9.44193 19.624 9.78725C19.624 10.1326 19.8536 10.4039 20.1458 10.4039C20.4381 10.3792 20.6677 10.1079 20.6677 9.78725ZM20.4798 7.39466C20.4798 7.17266 20.3337 7 20.1458 7C19.958 7 19.8119 7.17266 19.8119 7.39466C19.8119 7.61665 19.958 7.78931 20.1458 7.78931C20.3337 7.81398 20.4798 7.61665 20.4798 7.39466ZM24.7379 19.999C24.7379 19.3083 24.2787 18.7657 23.6942 18.7657C23.1098 18.7657 22.6506 19.3083 22.6506 19.999C22.6506 20.6896 23.1307 21.2323 23.6942 21.2323C24.2578 21.2323 24.7379 20.6896 24.7379 19.999ZM27.2426 19.999C27.2426 19.5056 26.9087 19.111 26.4912 19.111C26.0737 19.111 25.7398 19.5056 25.7398 19.999C25.7398 20.4923 26.0737 20.8623 26.4912 20.8623C26.9295 20.8869 27.2426 20.4923 27.2426 19.999ZM29.309 19.999C29.309 19.6536 29.0794 19.3823 28.7872 19.3823C28.495 19.3823 28.2654 19.6536 28.2654 19.999C28.2654 20.3443 28.495 20.6156 28.7872 20.6156C29.0794 20.6156 29.309 20.3443 29.309 19.999ZM31.1667 19.999C31.1667 19.777 31.0206 19.6043 30.8328 19.6043C30.6449 19.6043 30.4988 19.777 30.4988 19.999C30.4988 20.2209 30.6449 20.3936 30.8328 20.3936C30.9997 20.4183 31.1667 20.2209 31.1667 19.999ZM21.1895 24.1922C21.1895 23.5015 20.7094 22.9589 20.1458 22.9589C19.5614 22.9589 19.1022 23.5015 19.1022 24.1922C19.1022 24.8828 19.5823 25.4255 20.1458 25.4255C20.7303 25.4255 21.1895 24.8581 21.1895 24.1922ZM20.8973 27.5221C20.8973 27.0287 20.5633 26.6341 20.1458 26.6341C19.7284 26.6341 19.3944 27.0287 19.3944 27.5221C19.3944 28.0154 19.7284 28.41 20.1458 28.41C20.5633 28.3854 20.8973 28.0154 20.8973 27.5221ZM20.6677 30.2353C20.6677 29.89 20.4381 29.6187 20.1458 29.6187C19.8536 29.6187 19.624 29.89 19.624 30.2353C19.624 30.5806 19.8536 30.852 20.1458 30.852C20.4381 30.8273 20.6677 30.556 20.6677 30.2353ZM20.4798 32.6033C20.4798 32.3813 20.3337 32.2086 20.1458 32.2086C19.958 32.2086 19.8119 32.3813 19.8119 32.6033C19.8119 32.8252 19.958 32.9979 20.1458 32.9979C20.3337 33.0226 20.4798 32.8252 20.4798 32.6033ZM17.662 19.999C17.662 19.3083 17.1819 18.7657 16.6183 18.7657C16.0339 18.7657 15.5747 19.3083 15.5747 19.999C15.5747 20.6896 16.0548 21.2323 16.6183 21.2323C17.2028 21.2323 17.662 20.6896 17.662 19.999ZM14.531 19.999C14.531 19.5056 14.1971 19.111 13.7796 19.111C13.3622 19.111 13.0282 19.5056 13.0282 19.999C13.0282 20.4923 13.3622 20.8623 13.7796 20.8623C14.1971 20.8623 14.531 20.4923 14.531 19.999ZM12.0263 19.999C12.0263 19.6536 11.7967 19.3823 11.5045 19.3823C11.2123 19.3823 10.9827 19.6536 10.9827 19.999C10.9827 20.3443 11.2123 20.6156 11.5045 20.6156C11.7967 20.6156 12.0263 20.3443 12.0263 19.999ZM9.83465 19.999C9.83465 19.777 9.68854 19.6043 9.50068 19.6043C9.31283 19.6043 9.16672 19.777 9.16672 19.999C9.16672 20.2209 9.31283 20.3936 9.50068 20.3936C9.66767 20.4183 9.83465 20.2209 9.83465 19.999ZM23.3811 17.927C23.5899 17.705 23.6942 17.3844 23.6942 17.0637C23.6942 16.743 23.5899 16.4224 23.3811 16.1757C23.1933 15.9537 22.9219 15.8057 22.6506 15.8057C22.3792 15.8057 22.1079 15.9291 21.92 16.1757C21.7113 16.4224 21.6069 16.7184 21.6069 17.0637C21.6069 17.3844 21.7113 17.705 21.92 17.927C22.1079 18.1737 22.3792 18.297 22.6506 18.297C22.9219 18.297 23.1933 18.149 23.3811 17.927ZM25.1762 15.3124C25.4684 14.9671 25.4684 14.4245 25.1762 14.0791C25.0301 13.9065 24.8422 13.8325 24.6544 13.8325C24.4665 13.8325 24.2787 13.9311 24.1326 14.0791C23.9865 14.2518 23.903 14.4738 23.903 14.6958C23.903 14.9424 23.9865 15.1398 24.1326 15.3124C24.2787 15.4851 24.4665 15.5591 24.6544 15.5591C24.8422 15.5591 25.0301 15.4851 25.1762 15.3124ZM26.6164 13.2158C26.7208 13.0925 26.7625 12.9445 26.7625 12.7965C26.7625 12.6485 26.6999 12.4758 26.6164 12.3772C26.5329 12.2292 26.4077 12.1798 26.2616 12.1798C26.1155 12.1798 25.9902 12.2538 25.9068 12.3525C25.8024 12.4758 25.7606 12.6238 25.7606 12.7718C25.7606 12.9198 25.8233 13.0925 25.9068 13.1912C26.0111 13.3145 26.1364 13.3638 26.2616 13.3638C26.3868 13.3638 26.5329 13.3145 26.6164 13.2158ZM27.9314 11.3905C28.0567 11.2425 28.0567 10.9712 27.9314 10.8232C27.8062 10.6752 27.5766 10.6752 27.4513 10.8232C27.3261 10.9712 27.3261 11.2425 27.4513 11.3905C27.514 11.4645 27.5975 11.5139 27.7018 11.5139C27.7853 11.4892 27.8688 11.4645 27.9314 11.3905ZM23.402 23.8468C23.7986 23.3535 23.7986 22.5889 23.402 22.0956C23.1933 21.8489 22.9428 21.7256 22.6506 21.7256C22.3792 21.7256 22.1079 21.8489 21.92 22.0956C21.5026 22.5642 21.5026 23.3535 21.92 23.8468C22.1079 24.0688 22.3792 24.2168 22.6506 24.2168C22.9219 24.1922 23.1933 24.0688 23.402 23.8468ZM25.1762 25.9434C25.4684 25.5981 25.4684 25.0555 25.1762 24.7102C25.0301 24.5375 24.8422 24.4635 24.6544 24.4635C24.4457 24.4635 24.2787 24.5622 24.1326 24.7102C23.9865 24.8828 23.903 25.1048 23.903 25.3268C23.903 25.5488 23.9865 25.7708 24.1326 25.9434C24.2787 26.1161 24.4665 26.1901 24.6544 26.1901C24.8422 26.1901 25.0301 26.1161 25.1762 25.9434ZM26.6373 27.6701C26.7417 27.5467 26.7834 27.3987 26.7834 27.2507C26.7834 27.0781 26.7208 26.9301 26.6373 26.8314C26.5329 26.7081 26.4077 26.6588 26.2825 26.6588C26.1364 26.6588 26.0111 26.7328 25.9276 26.8314C25.8233 26.9548 25.7815 27.1027 25.7815 27.2507C25.7815 27.4234 25.8441 27.5714 25.9276 27.6701C26.032 27.7934 26.1572 27.8427 26.2825 27.8427C26.4077 27.8427 26.5329 27.7934 26.6373 27.6701ZM27.9314 29.1994C27.994 29.1254 28.0358 29.0267 28.0358 28.9034C28.0358 28.8047 27.994 28.706 27.9314 28.632C27.8062 28.484 27.5766 28.484 27.4513 28.632C27.3887 28.706 27.347 28.8047 27.347 28.9034C27.347 29.002 27.3887 29.1254 27.4513 29.1994C27.514 29.2733 27.5975 29.3227 27.7018 29.3227C27.7853 29.3227 27.8688 29.298 27.9314 29.1994ZM18.3925 23.8468C18.81 23.3535 18.81 22.5642 18.3925 22.0956C18.2047 21.8489 17.9333 21.7256 17.662 21.7256C17.3906 21.7256 17.1193 21.8489 16.9314 22.0956C16.7227 22.3176 16.6183 22.6382 16.6183 22.9589C16.6183 23.2795 16.7227 23.6002 16.9314 23.8468C17.1193 24.0688 17.3906 24.2168 17.662 24.2168C17.9333 24.1922 18.1838 24.0688 18.3925 23.8468ZM16.18 25.9434C16.3261 25.7708 16.3887 25.5488 16.3887 25.3268C16.3887 25.0801 16.3052 24.8828 16.18 24.7102C16.0339 24.5375 15.846 24.4635 15.6582 24.4635C15.4495 24.4635 15.2825 24.5622 15.1364 24.7102C14.8441 25.0555 14.8441 25.5981 15.1364 25.9434C15.2825 26.1161 15.4703 26.1901 15.6582 26.1901C15.846 26.1901 16.0339 26.1161 16.18 25.9434ZM14.3849 27.6701C14.4893 27.5467 14.531 27.3987 14.531 27.2507C14.531 27.0781 14.4684 26.9301 14.3849 26.8068C14.2806 26.6834 14.1553 26.6341 14.0301 26.6341C13.884 26.6341 13.7587 26.7081 13.6753 26.8068C13.5709 26.9301 13.5291 27.0781 13.5291 27.2507C13.5291 27.4234 13.5918 27.5714 13.6753 27.6701C13.7796 27.7934 13.9049 27.8427 14.0301 27.8427C14.1553 27.8427 14.3014 27.7687 14.3849 27.6701ZM12.8403 29.1994C12.903 29.1254 12.9447 29.0267 12.9447 28.9034C12.9447 28.8047 12.903 28.6814 12.8403 28.632C12.7151 28.484 12.4855 28.484 12.3603 28.632C12.235 28.78 12.235 29.0514 12.3603 29.1994C12.4229 29.2733 12.5064 29.3227 12.6107 29.3227C12.6942 29.3227 12.7777 29.2733 12.8403 29.1994ZM18.3925 17.927C18.81 17.4584 18.81 16.6691 18.3925 16.1757C18.2047 15.9537 17.9333 15.8057 17.662 15.8057C17.3906 15.8057 17.1193 15.9291 16.9314 16.1757C16.7227 16.4224 16.6183 16.7184 16.6183 17.0637C16.6183 17.3844 16.7227 17.705 16.9314 17.927C17.1193 18.149 17.3906 18.297 17.662 18.297C17.9333 18.297 18.1838 18.1737 18.3925 17.927ZM16.18 15.3124C16.3261 15.1398 16.3887 14.9178 16.3887 14.6958C16.3887 14.4738 16.3052 14.2518 16.18 14.0791C16.0339 13.9065 15.846 13.8325 15.6582 13.8325C15.4703 13.8325 15.2825 13.9311 15.1364 14.0791C14.9902 14.2518 14.9276 14.4738 14.9276 14.6958C14.9276 14.9424 15.0111 15.1398 15.1364 15.3124C15.2825 15.4851 15.4703 15.5591 15.6582 15.5591C15.846 15.5837 16.0339 15.4851 16.18 15.3124ZM14.4058 13.2158C14.5102 13.0925 14.5519 12.9445 14.5519 12.7718C14.5519 12.5992 14.4893 12.4512 14.4058 12.3525C14.3014 12.2292 14.1762 12.1798 14.051 12.1798C13.9049 12.1798 13.7796 12.2538 13.6961 12.3525C13.4874 12.5992 13.4874 12.9692 13.6961 13.2158C13.8005 13.3391 13.9257 13.3885 14.051 13.3885C14.1762 13.3885 14.3014 13.3391 14.4058 13.2158ZM12.8403 11.3905C12.903 11.3165 12.9447 11.2179 12.9447 11.0945C12.9447 10.9959 12.903 10.8726 12.8403 10.7986C12.7151 10.6506 12.4855 10.6506 12.3603 10.7986C12.235 10.9466 12.235 11.2179 12.3603 11.3659C12.4229 11.4399 12.5064 11.4892 12.6107 11.4892C12.7151 11.4892 12.7777 11.4645 12.8403 11.3905Z" fill="white"/>
</svg>
