<svg width="24" height="32" viewBox="0 0 24 32" fill="none" xmlns="http://www.w3.org/2000/svg">
<path d="M20.7 2.59961H3.3C2.1 2.59961 1.125 3.89961 1.125 5.39961V23.5996C1.125 25.0996 2.1 26.3996 3.3 26.3996H9.3C9.3 26.3996 9.45 26.5996 9.675 26.9996C9.75 27.0996 9.825 27.1996 9.9 27.3996C9.9 27.3996 10.05 27.6996 10.125 27.7996C10.8 29.1996 11.325 29.8996 12.15 29.8996C12.975 29.8996 13.575 29.1996 14.25 27.7996C14.775 26.6996 14.925 26.3996 14.925 26.3996H20.775C21.975 26.3996 22.95 25.0996 22.95 23.5996V5.39961C22.875 3.79961 21.9 2.59961 20.7 2.59961ZM21.825 23.5996C21.825 24.3996 21.375 24.9996 20.775 24.9996H14.85C14.7 24.9996 14.625 24.9996 14.475 25.0996C14.25 25.2996 14.025 25.4996 13.8 25.9996C13.725 26.1996 13.275 27.0996 13.275 27.0996C12.825 28.0996 12.45 28.4996 12.15 28.4996C11.85 28.4996 11.55 28.0996 11.025 27.0996C10.95 26.9996 10.875 26.6996 10.8 26.6996C10.725 26.4996 10.65 26.3996 10.575 26.2996C10.125 25.4996 9.825 25.0996 9.3 25.0996H3.3C2.7 25.0996 2.25 24.4996 2.25 23.6996V5.49961C2.25 4.69961 2.775 4.09961 3.375 4.09961H20.775C21.375 4.09961 21.9 4.69961 21.9 5.49961V23.5996H21.825Z" fill="currentColor" stroke="currentColor" stroke-width="0.3"/>
<path d="M5.1748 15.1C5.1748 15.3101 5.20584 15.5182 5.26615 15.7123C5.32645 15.9064 5.41485 16.0828 5.52628 16.2314C5.63771 16.3799 5.76999 16.4978 5.91558 16.5782C6.06118 16.6586 6.21722 16.7 6.3748 16.7C6.53239 16.7 6.68843 16.6586 6.83402 16.5782C6.97962 16.4978 7.1119 16.3799 7.22333 16.2314C7.33476 16.0828 7.42315 15.9064 7.48346 15.7123C7.54377 15.5182 7.57481 15.3101 7.5748 15.1C7.57481 14.6757 7.44838 14.2687 7.22333 13.9686C6.99829 13.6686 6.69306 13.5 6.3748 13.5C6.05654 13.5 5.75132 13.6686 5.52628 13.9686C5.30123 14.2687 5.1748 14.6757 5.1748 15.1ZM10.7998 15.1C10.7998 15.5243 10.9262 15.9313 11.1513 16.2314C11.3763 16.5314 11.6815 16.7 11.9998 16.7C12.3181 16.7 12.6233 16.5314 12.8483 16.2314C13.0734 15.9313 13.1998 15.5243 13.1998 15.1C13.1998 14.6757 13.0734 14.2687 12.8483 13.9686C12.6233 13.6686 12.3181 13.5 11.9998 13.5C11.6815 13.5 11.3763 13.6686 11.1513 13.9686C10.9262 14.2687 10.7998 14.6757 10.7998 15.1ZM16.3498 15.1C16.3498 15.5243 16.4762 15.9313 16.7013 16.2314C16.9263 16.5314 17.2315 16.7 17.5498 16.7C17.8681 16.7 18.1733 16.5314 18.3983 16.2314C18.6234 15.9313 18.7498 15.5243 18.7498 15.1C18.7498 14.6757 18.6234 14.2687 18.3983 13.9686C18.1733 13.6686 17.8681 13.5 17.5498 13.5C17.2315 13.5 16.9263 13.6686 16.7013 13.9686C16.4762 14.2687 16.3498 14.6757 16.3498 15.1Z" fill="currentColor"/>
</svg>
