<svg width="102" height="102" viewBox="0 0 102 102" fill="none" xmlns="http://www.w3.org/2000/svg">
<path d="M43.3008 0.6875C66.8353 0.687605 85.9141 19.6456 85.9141 43.0312C85.914 54.2937 81.4881 64.5287 74.2715 72.1143L80.2207 78.0264L80.25 77.9971C81.7514 76.5053 84.1861 76.5053 85.6875 77.9971L100.188 92.4053C101.689 93.8972 101.689 96.3167 100.188 97.8086L97.7861 100.194C96.2847 101.686 93.8501 101.686 92.3486 100.194L77.8486 85.7861C76.3475 84.2942 76.3474 81.8757 77.8486 80.3838L78.4092 79.8271L72.4561 73.9121C64.8338 81.0205 54.579 85.3749 43.3008 85.375C19.7663 85.375 0.68759 66.4169 0.6875 43.0312C0.6875 19.6455 19.7662 0.6875 43.3008 0.6875ZM83.875 79.7979C83.3746 79.3009 82.5629 79.3009 82.0625 79.7979L79.6611 82.1846C79.1609 82.6819 79.1609 83.4881 79.6611 83.9854L94.1611 98.3936C94.6615 98.8906 95.4722 98.8905 95.9727 98.3936L98.375 96.0068C98.875 95.5095 98.8752 94.7032 98.375 94.2061L83.875 79.7979ZM43.3008 3.23438C21.1818 3.23438 3.25098 21.0522 3.25098 43.0312C3.25107 65.0102 21.1819 82.8281 43.3008 82.8281C65.4196 82.828 83.3505 65.0102 83.3506 43.0312C83.3506 21.0523 65.4196 3.23448 43.3008 3.23438ZM43.3008 7.69141C62.9423 7.69151 78.8652 23.5139 78.8652 43.0312C78.8651 62.5485 62.9423 78.37 43.3008 78.3701C23.6592 78.3701 7.73642 62.5486 7.73633 43.0312C7.73633 23.5138 23.6592 7.69141 43.3008 7.69141ZM43.3008 10.2383C25.0748 10.2383 10.2998 24.9205 10.2998 43.0312C10.2999 61.1419 25.0748 75.8232 43.3008 75.8232C61.5266 75.8231 76.3017 61.1418 76.3018 43.0312C76.3018 24.9206 61.5267 10.2384 43.3008 10.2383ZM43.3008 18.5166C29.6755 18.5166 18.6299 29.4922 18.6299 43.0312H16.0664C16.0664 28.0855 28.2599 15.9697 43.3008 15.9697V18.5166Z" fill="#1D1D1D"/>
<path d="M44.2627 56.0846C44.9704 56.0847 45.5439 56.6547 45.5439 57.358V62.4517L45.5371 62.5816C45.4716 63.2238 44.9262 63.7251 44.2627 63.7252C43.5991 63.7252 43.0528 63.2239 42.9873 62.5816L42.9805 62.4517V57.358C42.9805 56.6547 43.5549 56.0846 44.2627 56.0846ZM44.2627 25.5201C44.9703 25.5202 45.5437 26.0905 45.5439 26.7935V52.2642C45.5437 52.9673 44.9702 53.5376 44.2627 53.5377C43.555 53.5377 42.9807 52.9674 42.9805 52.2642V26.7935C42.9807 26.0904 43.555 25.5201 44.2627 25.5201Z" fill="#0085D5"/>
</svg>
