<svg width="40" height="40" viewBox="0 0 40 40" fill="none" xmlns="http://www.w3.org/2000/svg">
<path d="M25.5312 10.25H20.375V16.25H29.6562C29.6094 16.1562 29.5625 16.0625 29.5156 16.0156L27.5938 11.6094C27.2188 10.8125 26.4219 10.25 25.5312 10.25ZM29.75 17H10.25V27.5C10.25 28.7656 11.2344 29.75 12.5 29.75H27.5C28.7188 29.75 29.75 28.7656 29.75 27.5V17ZM10.3438 16.25H19.625V10.25H14.4219C13.5312 10.25 12.7344 10.8125 12.3594 11.6094L10.4375 16.0156C10.3906 16.0625 10.3438 16.1562 10.2969 16.25H10.3438ZM25.5312 9.5C26.7031 9.5 27.7812 10.2031 28.25 11.2812L30.2188 15.6875C30.4062 16.0625 30.5 16.4844 30.5 16.9062V27.5C30.5 29.1875 29.1406 30.5 27.5 30.5H12.5C10.8125 30.5 9.5 29.1875 9.5 27.5V16.9062C9.5 16.4844 9.54688 16.0625 9.73438 15.6875L11.7031 11.2812C12.1719 10.2031 13.25 9.5 14.4219 9.5H25.5312Z" fill="#004773"/>
<path d="M20.375 10.25V9.75H19.875V10.25H20.375ZM20.375 16.25H19.875V16.75H20.375V16.25ZM29.6562 16.25V16.75H30.4653L30.1035 16.0264L29.6562 16.25ZM29.5156 16.0156L29.0573 16.2155L29.0952 16.3023L29.1621 16.3692L29.5156 16.0156ZM27.5938 11.6094L28.0521 11.4095L28.0492 11.4029L28.0462 11.3965L27.5938 11.6094ZM29.75 17H30.25V16.5H29.75V17ZM10.25 17V16.5H9.75V17H10.25ZM19.625 16.25V16.75H20.125V16.25H19.625ZM19.625 10.25H20.125V9.75H19.625V10.25ZM12.3594 11.6094L11.907 11.3965L11.9039 11.4029L11.9011 11.4095L12.3594 11.6094ZM10.4375 16.0156L10.7911 16.3692L10.858 16.3023L10.8958 16.2155L10.4375 16.0156ZM10.2969 16.25L9.84966 16.0264L9.48786 16.75H10.2969V16.25ZM28.25 11.2812L27.7914 11.4806L27.7935 11.4852L28.25 11.2812ZM30.2188 15.6875L29.7622 15.8915L29.7667 15.9014L29.7715 15.9111L30.2188 15.6875ZM9.73438 15.6875L10.1816 15.9111L10.1864 15.9014L10.1909 15.8915L9.73438 15.6875ZM11.7031 11.2812L12.1597 11.4852L12.1617 11.4806L11.7031 11.2812ZM25.5312 10.25V9.75H20.375V10.25V10.75H25.5312V10.25ZM20.375 10.25H19.875V16.25H20.375H20.875V10.25H20.375ZM20.375 16.25V16.75H29.6562V16.25V15.75H20.375V16.25ZM29.6562 16.25L30.1035 16.0264C30.0815 15.9825 30.0517 15.9225 30.0201 15.8672C29.9919 15.8178 29.9417 15.7346 29.8692 15.6621L29.5156 16.0156L29.1621 16.3692C29.1461 16.3532 29.139 16.3424 29.1403 16.3444C29.141 16.3453 29.1447 16.3509 29.1518 16.3633C29.1671 16.39 29.1841 16.4237 29.209 16.4736L29.6562 16.25ZM29.5156 16.0156L29.9739 15.8157L28.0521 11.4095L27.5938 11.6094L27.1354 11.8093L29.0573 16.2155L29.5156 16.0156ZM27.5938 11.6094L28.0462 11.3965C27.5977 10.4435 26.6359 9.75 25.5312 9.75V10.25V10.75C26.2079 10.75 26.8398 11.1815 27.1413 11.8223L27.5938 11.6094ZM29.75 17V16.5H10.25V17V17.5H29.75V17ZM10.25 17H9.75V27.5H10.25H10.75V17H10.25ZM10.25 27.5H9.75C9.75 29.0418 10.9582 30.25 12.5 30.25V29.75V29.25C11.5105 29.25 10.75 28.4895 10.75 27.5H10.25ZM12.5 29.75V30.25H27.5V29.75V29.25H12.5V29.75ZM27.5 29.75V30.25C28.9881 30.25 30.25 29.0485 30.25 27.5H29.75H29.25C29.25 28.4827 28.4494 29.25 27.5 29.25V29.75ZM29.75 27.5H30.25V17H29.75H29.25V27.5H29.75ZM10.3438 16.25V16.75H19.625V16.25V15.75H10.3438V16.25ZM19.625 16.25H20.125V10.25H19.625H19.125V16.25H19.625ZM19.625 10.25V9.75H14.4219V10.25V10.75H19.625V10.25ZM14.4219 10.25V9.75C13.3172 9.75 12.3554 10.4435 11.907 11.3965L12.3594 11.6094L12.8118 11.8223C13.1133 11.1815 13.7453 10.75 14.4219 10.75V10.25ZM12.3594 11.6094L11.9011 11.4095L9.9792 15.8157L10.4375 16.0156L10.8958 16.2155L12.8177 11.8093L12.3594 11.6094ZM10.4375 16.0156L10.0839 15.6621C10.0115 15.7346 9.96125 15.8178 9.93307 15.8672C9.90143 15.9225 9.87159 15.9825 9.84966 16.0264L10.2969 16.25L10.7441 16.4736C10.769 16.4237 10.7861 16.39 10.8013 16.3633C10.8084 16.3509 10.8121 16.3453 10.8128 16.3444C10.8141 16.3424 10.8071 16.3532 10.7911 16.3692L10.4375 16.0156ZM10.2969 16.25V16.75H10.3438V16.25V15.75H10.2969V16.25ZM25.5312 9.5V10C26.5048 10 27.4024 10.5857 27.7915 11.4806L28.25 11.2812L28.7085 11.0819C28.1601 9.82053 26.9014 9 25.5312 9V9.5ZM28.25 11.2812L27.7935 11.4852L29.7622 15.8915L30.2188 15.6875L30.6753 15.4835L28.7065 11.0773L28.25 11.2812ZM30.2188 15.6875L29.7715 15.9111C29.9222 16.2124 30 16.5571 30 16.9062H30.5H31C31 16.4117 30.8903 15.9126 30.666 15.4639L30.2188 15.6875ZM30.5 16.9062H30V27.5H30.5H31V16.9062H30.5ZM30.5 27.5H30C30 28.9063 28.8696 30 27.5 30V30.5V31C29.4117 31 31 29.4687 31 27.5H30.5ZM27.5 30.5V30H12.5V30.5V31H27.5V30.5ZM12.5 30.5V30C11.0886 30 10 28.9114 10 27.5H9.5H9C9 29.4636 10.5364 31 12.5 31V30.5ZM9.5 27.5H10V16.9062H9.5H9V27.5H9.5ZM9.5 16.9062H10C10 16.5139 10.0453 16.1837 10.1816 15.9111L9.73438 15.6875L9.28716 15.4639C9.04845 15.9413 9 16.4548 9 16.9062H9.5ZM9.73438 15.6875L10.1909 15.8915L12.1596 11.4852L11.7031 11.2812L11.2466 11.0773L9.27787 15.4835L9.73438 15.6875ZM11.7031 11.2812L12.1617 11.4806C12.5507 10.5857 13.4483 10 14.4219 10V9.5V9C13.0517 9 11.793 9.82053 11.2446 11.0819L11.7031 11.2812ZM14.4219 9.5V10H25.5312V9.5V9H14.4219V9.5Z" fill="#004773"/>
</svg>
