<svg width="40" height="40" viewBox="0 0 40 40" fill="none" xmlns="http://www.w3.org/2000/svg">
<path d="M27.2188 25.875C27.2188 26.4583 26.7461 26.875 26.1875 26.875C25.5859 26.875 25.1562 26.4583 25.1562 25.875C25.1562 25.3333 25.5859 24.875 26.1875 24.875C26.7461 24.875 27.2188 25.3333 27.2188 25.875ZM23.4375 24.875C23.9961 24.875 24.4688 25.3333 24.4688 25.875C24.4688 26.4583 23.9961 26.875 23.4375 26.875C22.8359 26.875 22.4062 26.4583 22.4062 25.875C22.4062 25.3333 22.8359 24.875 23.4375 24.875ZM26.1875 18.875C26.7461 18.875 27.2188 19.3333 27.2188 19.875C27.2188 20.4583 26.7461 20.875 26.1875 20.875C25.5859 20.875 25.1562 20.4583 25.1562 19.875C25.1562 19.3333 25.5859 18.875 26.1875 18.875ZM23.4375 18.875C23.9961 18.875 24.4688 19.3333 24.4688 19.875C24.4688 20.4583 23.9961 20.875 23.4375 20.875C22.8359 20.875 22.4062 20.4583 22.4062 19.875C22.4062 19.3333 22.8359 18.875 23.4375 18.875ZM31 15.9167C31 16.25 30.8711 16.5833 30.6992 16.875C30.8711 17.2083 30.957 17.5417 30.957 17.875H31V21.9167C31 22.25 30.8711 22.5833 30.6992 22.875C30.8711 23.2083 30.957 23.5417 30.957 23.875H31V27.875C31 29 30.0547 29.875 28.9375 29.875H11.0625C9.90234 29.875 9 29 9 27.875V23.875C9 23.5417 9.08594 23.2083 9.25781 22.875C9.08594 22.5833 9 22.25 9 21.9167C9 21.9167 9 21.9167 9 21.875V17.875C9 17.5417 9.08594 17.2083 9.25781 16.875C9.08594 16.5833 9 16.25 9 15.9167C9 15.9167 9 15.9167 9 15.875V11.875C9 10.7917 9.90234 9.875 11.0625 9.875H28.9375C30.0547 9.875 31 10.7917 31 11.875V15.9167ZM11.0625 15.875H28.9375V11.875H11.0625V15.875ZM28.9375 17.875H11.0625V21.875H28.9375V17.875ZM28.9375 23.875H11.0625V27.875H28.9375V23.875ZM26.1875 14.875C25.5859 14.875 25.1562 14.4583 25.1562 13.875C25.1562 13.3333 25.5859 12.875 26.1875 12.875C26.7461 12.875 27.2188 13.3333 27.2188 13.875C27.2188 14.4583 26.7461 14.875 26.1875 14.875ZM23.4375 14.875C22.8359 14.875 22.4062 14.4583 22.4062 13.875C22.4062 13.3333 22.8359 12.875 23.4375 12.875C23.9961 12.875 24.4688 13.3333 24.4688 13.875C24.4688 14.4583 23.9961 14.875 23.4375 14.875Z" fill="#004773"/>
</svg>
