<svg width="18" height="18" viewBox="0 0 18 18" fill="none" xmlns="http://www.w3.org/2000/svg">
<path d="M1.11949 0.600098H7.84902C8.53339 0.666979 8.36845 1.85565 8.36845 2.62795V6.30482C8.36845 7.10391 8.52096 8.08339 7.98456 8.3104C7.63523 8.4582 6.69769 8.35493 6.2457 8.35493H2.67771C1.85292 8.35493 0.726698 8.54922 0.600116 7.8424V1.11259C0.692366 0.861941 0.854573 0.680348 1.11949 0.600098ZM2.04537 2.11542V6.90647H6.9006V2.04854H2.06798C2.04167 2.05229 2.04347 2.08377 2.04537 2.11542ZM10.1524 0.600098H16.882C17.1565 0.700579 17.3451 0.885904 17.4014 1.20175V7.75328C17.3398 8.02555 17.1958 8.25808 16.9272 8.33269C16.4882 8.45457 15.7588 8.35493 15.2335 8.35493H11.7784C11.2573 8.35493 10.4851 8.46325 10.0621 8.33269C9.46493 8.1483 9.63306 6.99799 9.63306 6.19337V2.76165C9.63306 1.83263 9.4264 0.729923 10.1524 0.600098ZM11.0783 2.11542V6.90647H15.9335V2.04854H11.1009C11.0746 2.05229 11.0764 2.08377 11.0783 2.11542ZM4.25845 3.51928C4.93465 3.39338 5.4664 3.84424 5.47793 4.45525C5.49306 5.26099 4.65908 5.70357 4.01005 5.36892C3.26755 4.98593 3.31639 3.69475 4.25845 3.51928ZM13.2914 3.51928C14.8841 3.22568 14.8536 5.71478 13.2914 5.45804C12.2972 5.29465 12.2651 3.70853 13.2914 3.51928ZM7.80387 17.4023H1.1421C0.865523 17.3186 0.678679 17.1465 0.600098 16.8675V10.16C0.66591 9.96368 0.817748 9.73472 1.05175 9.6697C1.49384 9.54696 2.21584 9.64746 2.7454 9.64746H6.20054C6.71117 9.64746 7.45429 9.53498 7.91676 9.6697C8.54243 9.852 8.36841 10.9836 8.36841 11.7867V15.3299C8.36845 16.1967 8.55758 17.3249 7.80387 17.4023ZM2.04537 11.1628V15.9538H6.9006V11.0959H2.06798C2.04167 11.0996 2.04347 11.1311 2.04537 11.1628ZM17.4014 10.2491V12.121C17.3487 12.7523 17.3938 13.4802 17.3788 14.1488H12.5688V13.0569C12.1171 13.0049 11.5676 13.0494 11.0783 13.0346C11.0256 14.4459 11.0708 15.9538 11.0557 17.4023H10.175C9.41775 17.2525 9.63304 16.1312 9.63304 15.2408V11.7867C9.63304 11.2673 9.52651 10.4887 9.65562 10.0708C9.80965 9.57222 10.4777 9.64742 11.1461 9.64742H14.4205V12.6112H15.9335C15.9485 11.6307 15.9034 10.5908 15.9561 9.64742C16.6842 9.60488 17.3586 9.61536 17.4014 10.2491ZM4.37136 12.5443C5.09337 12.4655 5.69025 13.1502 5.41017 13.9037C5.02191 14.9481 3.1656 14.5555 3.51325 13.2351C3.6093 12.8702 3.8869 12.5973 4.37136 12.5443ZM14.1947 17.4023H12.5688C12.5838 16.8303 12.5386 16.199 12.5913 15.6641H14.1947V17.4023ZM17.4014 15.6641V16.8006C17.3385 17.1175 17.1508 17.311 16.8594 17.4023H15.7077C15.7227 16.8303 15.6776 16.199 15.7303 15.6641H17.4014Z" fill="white"/>
</svg>
