<svg width="40" height="40" viewBox="0 0 40 40" fill="none" xmlns="http://www.w3.org/2000/svg">
<path d="M16.625 11C16.8125 9.3125 18.2188 8 20 8C21.7344 8 23.1406 9.3125 23.3281 11H23.75C24.6875 11 25.5312 11.6562 25.8594 12.5H26C27.6406 12.5 29 13.8594 29 15.5V29C29 30.6875 27.6406 32 26 32H14C12.3125 32 11 30.6875 11 29V15.5C11 13.8594 12.3125 12.5 14 12.5H14.0938C14.4219 11.6562 15.2656 11 16.25 11H16.625ZM14 13.25C12.7344 13.25 11.75 14.2812 11.75 15.5V29C11.75 30.2656 12.7344 31.25 14 31.25H26C27.2188 31.25 28.25 30.2656 28.25 29V15.5C28.25 14.2812 27.2188 13.25 26 13.25V14C26 14.8438 25.2969 15.5 24.5 15.5H15.5C14.6562 15.5 14 14.8438 14 14V13.25ZM20 8.75C18.5469 8.75 17.375 9.96875 17.375 11.375C17.375 11.6094 17.1875 11.75 17 11.75H16.25C15.4062 11.75 14.75 12.4531 14.75 13.25V14C14.75 14.4219 15.0781 14.75 15.5 14.75H24.5C24.875 14.75 25.25 14.4219 25.25 14V13.25C25.25 12.4531 24.5469 11.75 23.75 11.75H23C22.7656 11.75 22.625 11.6094 22.625 11.375C22.625 9.96875 21.4062 8.75 20 8.75ZM19.25 11.75C19.25 11.375 19.5781 11 20 11C20.375 11 20.75 11.375 20.75 11.75C20.75 12.1719 20.375 12.5 20 12.5C19.5781 12.5 19.25 12.1719 19.25 11.75Z" fill="#004773"/>
<path d="M16.625 11V11.5H17.0725L17.1219 11.0552L16.625 11ZM23.3281 11L22.8312 11.0552L22.8806 11.5H23.3281V11ZM25.8594 12.5L25.3934 12.6812L25.5173 13H25.8594V12.5ZM14.0938 12.5V13H14.4358L14.5598 12.6812L14.0938 12.5ZM14 13.25H14.5V12.75H14V13.25ZM26 13.25V12.75H25.5V13.25H26ZM16.625 11L17.1219 11.0552C17.2817 9.61752 18.4769 8.5 20 8.5V8V7.5C17.9606 7.5 16.3433 9.00748 16.1281 10.9448L16.625 11ZM20 8V8.5C21.4718 8.5 22.671 9.61313 22.8312 11.0552L23.3281 11L23.8251 10.9448C23.6103 9.01187 21.9969 7.5 20 7.5V8ZM23.3281 11V11.5H23.75V11V10.5H23.3281V11ZM23.75 11V11.5C24.457 11.5 25.1308 12.006 25.3934 12.6812L25.8594 12.5L26.3254 12.3188C25.9317 11.3065 24.918 10.5 23.75 10.5V11ZM25.8594 12.5V13H26V12.5V12H25.8594V12.5ZM26 12.5V13C27.3645 13 28.5 14.1355 28.5 15.5H29H29.5C29.5 13.5832 27.9168 12 26 12V12.5ZM29 15.5H28.5V29H29H29.5V15.5H29ZM29 29H28.5C28.5 30.4063 27.3696 31.5 26 31.5V32V32.5C27.9117 32.5 29.5 30.9687 29.5 29H29ZM26 32V31.5H14V32V32.5H26V32ZM14 32V31.5C12.5886 31.5 11.5 30.4114 11.5 29H11H10.5C10.5 30.9636 12.0364 32.5 14 32.5V32ZM11 29H11.5V15.5H11H10.5V29H11ZM11 15.5H11.5C11.5 14.1304 12.5937 13 14 13V12.5V12C12.0313 12 10.5 13.5883 10.5 15.5H11ZM14 12.5V13H14.0938V12.5V12H14V12.5ZM14.0938 12.5L14.5598 12.6812C14.8201 12.0119 15.4903 11.5 16.25 11.5V11V10.5C15.041 10.5 14.0237 11.3006 13.6277 12.3188L14.0938 12.5ZM16.25 11V11.5H16.625V11V10.5H16.25V11ZM14 13.25V12.75C12.4515 12.75 11.25 14.0119 11.25 15.5H11.75H12.25C12.25 14.5506 13.0173 13.75 14 13.75V13.25ZM11.75 15.5H11.25V29H11.75H12.25V15.5H11.75ZM11.75 29H11.25C11.25 30.5418 12.4582 31.75 14 31.75V31.25V30.75C13.0105 30.75 12.25 29.9895 12.25 29H11.75ZM14 31.25V31.75H26V31.25V30.75H14V31.25ZM26 31.25V31.75C27.4881 31.75 28.75 30.5485 28.75 29H28.25H27.75C27.75 29.9827 26.9494 30.75 26 30.75V31.25ZM28.25 29H28.75V15.5H28.25H27.75V29H28.25ZM28.25 15.5H28.75C28.75 14.0051 27.4949 12.75 26 12.75V13.25V13.75C26.9426 13.75 27.75 14.5574 27.75 15.5H28.25ZM26 13.25H25.5V14H26H26.5V13.25H26ZM26 14H25.5C25.5 14.5575 25.0309 15 24.5 15V15.5V16C25.5628 16 26.5 15.13 26.5 14H26ZM24.5 15.5V15H15.5V15.5V16H24.5V15.5ZM15.5 15.5V15C14.9324 15 14.5 14.5676 14.5 14H14H13.5C13.5 15.1199 14.3801 16 15.5 16V15.5ZM14 14H14.5V13.25H14H13.5V14H14ZM20 8.75V8.25C18.265 8.25 16.875 9.69841 16.875 11.375H17.375H17.875C17.875 10.2391 18.8288 9.25 20 9.25V8.75ZM17.375 11.375H16.875C16.875 11.3657 16.8771 11.3491 16.8859 11.3294C16.8944 11.3102 16.9066 11.2941 16.92 11.2818C16.9444 11.2594 16.9722 11.25 17 11.25V11.75V12.25C17.4218 12.25 17.875 11.9256 17.875 11.375H17.375ZM17 11.75V11.25H16.25V11.75V12.25H17V11.75ZM16.25 11.75V11.25C15.12 11.25 14.25 12.1872 14.25 13.25H14.75H15.25C15.25 12.7191 15.6925 12.25 16.25 12.25V11.75ZM14.75 13.25H14.25V14H14.75H15.25V13.25H14.75ZM14.75 14H14.25C14.25 14.698 14.802 15.25 15.5 15.25V14.75V14.25C15.3543 14.25 15.25 14.1457 15.25 14H14.75ZM15.5 14.75V15.25H24.5V14.75V14.25H15.5V14.75ZM24.5 14.75V15.25C25.1309 15.25 25.75 14.7179 25.75 14H25.25H24.75C24.75 14.0578 24.7248 14.1194 24.6697 14.1722C24.6116 14.2279 24.5447 14.25 24.5 14.25V14.75ZM25.25 14H25.75V13.25H25.25H24.75V14H25.25ZM25.25 13.25H25.75C25.75 12.177 24.823 11.25 23.75 11.25V11.75V12.25C24.2707 12.25 24.75 12.7293 24.75 13.25H25.25ZM23.75 11.75V11.25H23V11.75V12.25H23.75V11.75ZM23 11.75V11.25C22.9831 11.25 23.0282 11.2469 23.0782 11.2968C23.1281 11.3468 23.125 11.3919 23.125 11.375H22.625H22.125C22.125 11.5924 22.1922 11.8251 22.3711 12.0039C22.5499 12.1828 22.7826 12.25 23 12.25V11.75ZM22.625 11.375H23.125C23.125 9.69261 21.6824 8.25 20 8.25V8.75V9.25C21.1301 9.25 22.125 10.2449 22.125 11.375H22.625ZM19.25 11.75H19.75C19.75 11.7053 19.7721 11.6384 19.8278 11.5803C19.8806 11.5252 19.9422 11.5 20 11.5V11V10.5C19.2821 10.5 18.75 11.1191 18.75 11.75H19.25ZM20 11V11.5C20.0249 11.5 20.0916 11.5175 20.1621 11.5879C20.2325 11.6584 20.25 11.7251 20.25 11.75H20.75H21.25C21.25 11.3999 21.08 11.0916 20.8692 10.8808C20.6584 10.67 20.3501 10.5 20 10.5V11ZM20.75 11.75H20.25C20.25 11.8078 20.2248 11.8694 20.1697 11.9222C20.1116 11.9779 20.0447 12 20 12V12.5V13C20.6309 13 21.25 12.4679 21.25 11.75H20.75ZM20 12.5V12C19.8543 12 19.75 11.8957 19.75 11.75H19.25H18.75C18.75 12.448 19.302 13 20 13V12.5Z" fill="#004773"/>
</svg>
