<svg width="32" height="32" viewBox="0 0 32 32" fill="none" xmlns="http://www.w3.org/2000/svg">
<path d="M20.4439 11.5558L16.5741 4.97709C16.3163 4.53889 15.6826 4.53889 15.4248 4.97709L11.555 11.5558M18.9624 26.6669H28.1672C28.6828 26.6669 29.0032 26.1066 28.7418 25.6622L24.3328 18.1669M10.0735 26.6669H3.83174C3.31613 26.6669 2.99569 26.1066 3.25712 25.6622L7.66613 18.1669M19.9995 22.6669L16.4709 26.1955C16.2105 26.4558 16.2105 26.878 16.4709 27.1383L19.9995 30.6669M9.33276 21.3336L8.79023 16.9925C8.73124 16.5205 8.21101 16.2603 7.79797 16.4964L3.99931 18.6669M15.9995 12.0002L20.8196 13.2918C21.1753 13.3871 21.5408 13.176 21.6361 12.8204L22.9277 8.00022" stroke="#1D1D1D" stroke-width="2" stroke-linecap="round"/>
</svg>
