<svg width="16" height="14" viewBox="0 0 16 14" fill="none" xmlns="http://www.w3.org/2000/svg">
<path d="M11.7646 0.978271C12.0574 0.685501 12.5323 0.685747 12.8252 0.978271L14.9473 3.09937L14.999 3.15601C15.2389 3.45052 15.2216 3.88543 14.9473 4.15991L6.15918 12.948L6.0791 13.0164C5.99567 13.0791 5.89933 13.1245 5.79688 13.1482L3.03906 13.7849C2.78721 13.8429 2.5226 13.7675 2.33984 13.5847C2.15732 13.4019 2.08159 13.1372 2.13965 12.8855L2.77637 10.1277C2.80803 9.99091 2.87729 9.86466 2.97656 9.76538L11.7646 0.978271ZM4.18945 10.6746L3.87109 12.0535L5.25 11.7351L13.3555 3.62964L12.2949 2.56909L4.18945 10.6746ZM3.32715 0.199951C3.70512 0.238573 4 0.557878 4 0.946045V2.19604H5.25C5.66421 2.19604 6 2.53183 6 2.94604C6 3.33421 5.70512 3.65352 5.32715 3.69214L5.25 3.69604H4V4.94604L3.99609 5.02319C3.95747 5.40116 3.63817 5.69604 3.25 5.69604C2.83579 5.69604 2.5 5.36026 2.5 4.94604V3.69604H1.25C0.861834 3.69604 0.542528 3.40116 0.503906 3.02319L0.5 2.94604C0.5 2.53183 0.835786 2.19604 1.25 2.19604H2.5V0.946045C2.5 0.531831 2.83579 0.196045 3.25 0.196045L3.32715 0.199951Z" fill="#004773"/>
</svg>
