<svg width="24" height="32" viewBox="0 0 24 32" fill="none" xmlns="http://www.w3.org/2000/svg">
<path d="M11.4773 22.269C11.4773 22.2683 13.5228 22.2683 13.5228 22.2683C13.5241 22.2683 13.5228 21.5359 13.5228 21.5359C13.5228 21.5366 11.4773 21.5366 11.4773 21.5366C11.476 21.5366 11.4773 22.269 11.4773 22.269ZM17.4115 19.3016C17.2557 19.3279 17.0955 19.3415 16.9318 19.3415C16.8871 19.3415 16.8427 19.332 16.8014 19.3136C16.76 19.2952 16.7224 19.2683 16.6908 19.2343C16.6591 19.2003 16.634 19.16 16.6169 19.1156C16.5998 19.0712 16.5909 19.0237 16.5909 18.9756V13.122C16.5909 13.0739 16.5998 13.0263 16.6169 12.9819C16.634 12.9376 16.6591 12.8972 16.6908 12.8633C16.7224 12.8293 16.76 12.8023 16.8014 12.7839C16.8427 12.7656 16.8871 12.7561 16.9318 12.7561C17.4479 12.7552 17.9557 12.8947 18.408 13.1615C17.553 10.5584 15.2014 8.73171 12.4888 8.73171C9.77214 8.73171 7.41443 10.5635 6.56285 13.179C7.02222 12.9009 7.54087 12.7552 8.06829 12.7561C8.1587 12.7561 8.24541 12.7946 8.30935 12.8633C8.37328 12.9319 8.4092 13.0249 8.4092 13.122V18.9756C8.4092 19.0237 8.40038 19.0712 8.38325 19.1156C8.36611 19.16 8.341 19.2003 8.30935 19.2343C8.27769 19.2683 8.24011 19.2952 8.19875 19.3136C8.15739 19.332 8.11306 19.3415 8.06829 19.3415C7.48812 19.3415 6.91983 19.165 6.42935 18.8324C5.93887 18.4998 5.54631 18.0248 5.2972 17.4625C5.0481 16.9002 4.95267 16.2736 5.02197 15.6554C5.09128 15.0373 5.32248 14.4529 5.68877 13.97C5.67945 13.9208 5.67968 13.8702 5.68945 13.8211C6.35353 10.4516 9.18373 8 12.4885 8C15.8396 8 18.6974 10.52 19.312 13.9524L19.3155 13.9755C19.7593 14.5614 20.001 15.2937 20 16.0488C20 17.2561 19.3942 18.3119 18.4911 18.8852C17.57 20.6121 16.0182 21.8823 14.1961 22.385C14.1707 22.5569 14.0889 22.7133 13.9654 22.8261C13.8419 22.9389 13.6849 23.0006 13.5228 23H11.4773C11.1006 23 10.7955 22.6715 10.7955 22.269V21.5359C10.7955 21.1319 11.0979 20.8049 11.4773 20.8049H13.5228C13.8995 20.8049 14.2046 21.1334 14.2046 21.5359V21.624C15.4747 21.2315 16.597 20.4188 17.4115 19.3016ZM5.68195 16.0488C5.68672 18.3398 7.72738 18.6032 7.72738 18.6032V13.5017C7.72738 13.5017 5.67718 13.7578 5.68195 16.0488ZM19.3182 16.0488C19.323 13.7578 17.2727 13.5017 17.2727 13.5017V18.6032C17.2727 18.6032 19.3134 18.3398 19.3182 16.0488Z" fill="currentColor" stroke="white" stroke-width="0.4"/>
</svg>
