<svg width="32" height="32" viewBox="0 0 32 32" fill="none" xmlns="http://www.w3.org/2000/svg">
<path d="M0 16C0 7.16344 7.16344 0 16 0C24.8366 0 32 7.16344 32 16C32 24.8366 24.8366 32 16 32C7.16344 32 0 24.8366 0 16Z" fill="#005E96"/>
<path d="M8 15.4297L8 22.4297M11.5 15.0171V21.5725C11.5 22.6771 12.3954 23.5725 13.5 23.5725H21.3902C22.3301 23.5725 23.1432 22.9181 23.344 21.9999L24.7345 15.6434C24.8709 15.0197 24.396 14.4297 23.7576 14.4297H20C18.8954 14.4297 18 13.5343 18 12.4297V11.047C18 10.0114 17.5886 9.01832 16.8564 8.28608C16.4161 7.84581 15.6818 7.92471 15.3451 8.44846L11.8176 13.9356C11.6103 14.2582 11.5 14.6336 11.5 15.0171Z" stroke="white" stroke-width="2" stroke-linecap="round"/>
</svg>
