<svg fill="none" height="32" viewBox="0 0 32 32" width="32" xmlns="http://www.w3.org/2000/svg"><path d="m0 16c0-8.83656 7.16344-16 16-16 8.8366 0 16 7.16344 16 16 0 8.8366-7.1634 16-16 16-8.83656 0-16-7.1634-16-16z" fill="#0074bb"/><path d="m8 15.4297v7m3.5-7.4126v6.5554c0 1.1046.8954 2 2 2h7.8902c.9399 0 1.753-.6544 1.9538-1.5726l1.3905-6.3565c.1364-.6237-.3385-1.2137-.9769-1.2137h-3.7576c-1.1046 0-2-.8954-2-2v-1.3827c0-1.0356-.4114-2.02868-1.1436-2.76092-.4403-.44027-1.1746-.36137-1.5113.16238l-3.5275 5.48714c-.2073.3226-.3176.698-.3176 1.0815z" stroke="#fff" stroke-linecap="round" stroke-width="2"/></svg>