<svg width="32" height="32" viewBox="0 0 32 32" fill="none" xmlns="http://www.w3.org/2000/svg">
<path d="M0 16C0 7.16344 7.16344 0 16 0C24.8366 0 32 7.16344 32 16C32 24.8366 24.8366 32 16 32C7.16344 32 0 24.8366 0 16Z" fill="#0074BB"/>
<path d="M8 16.1431L8 9.14307M11.5 16.5557V10.0002C11.5 8.89565 12.3954 8.00021 13.5 8.00021H21.3902C22.3301 8.00021 23.1432 8.65465 23.344 9.57282L24.7345 15.9294C24.8709 16.553 24.396 17.1431 23.7576 17.1431H20C18.8954 17.1431 18 18.0385 18 19.1431V20.5258C18 21.5613 17.5886 22.5544 16.8564 23.2867C16.4161 23.7269 15.6818 23.648 15.3451 23.1243L11.8176 17.6372C11.6103 17.3146 11.5 16.9392 11.5 16.5557Z" stroke="white" stroke-width="2" stroke-linecap="round"/>
</svg>
