<svg width="16" height="16" viewBox="0 0 16 16" fill="none" xmlns="http://www.w3.org/2000/svg">
<path d="M13.75 6.5C13.75 7.05228 14.1977 7.5 14.75 7.5C15.3023 7.5 15.75 7.05228 15.75 6.5H14.75H13.75ZM9.5 0.25C8.94771 0.25 8.5 0.697715 8.5 1.25C8.5 1.80228 8.94771 2.25 9.5 2.25V1.25V0.25ZM14.6356 1.82331L15.5266 1.36932V1.36932L14.6356 1.82331ZM14.1767 1.36444L14.6307 0.473437L14.6307 0.473437L14.1767 1.36444ZM14.4071 3.00711C14.7976 2.61658 14.7976 1.98342 14.4071 1.59289C14.0166 1.20237 13.3834 1.20237 12.9929 1.59289L13.7 2.3L14.4071 3.00711ZM7.29289 7.29289C6.90237 7.68342 6.90237 8.31658 7.29289 8.70711C7.68342 9.09763 8.31658 9.09763 8.70711 8.70711L8 8L7.29289 7.29289ZM2.64605 14.4713L3.10004 13.5803H3.10004L2.64605 14.4713ZM1.52868 13.354L0.63767 13.8079L0.63767 13.8079L1.52868 13.354ZM12.2213 13.354L11.3303 12.9H11.3303L12.2213 13.354ZM11.104 14.4713L10.65 13.5803L11.104 14.4713ZM2.64605 3.77868L2.19206 2.88767H2.19206L2.64605 3.77868ZM1.52868 4.89605L0.63767 4.44206L1.52868 4.89605ZM6.875 4.5C7.42728 4.5 7.875 4.05228 7.875 3.5C7.875 2.94772 7.42728 2.5 6.875 2.5V3.5V4.5ZM13.5 9.125C13.5 8.57272 13.0523 8.125 12.5 8.125C11.9477 8.125 11.5 8.57272 11.5 9.125H12.5H13.5ZM14.75 6.5H15.75V2.93H14.75H13.75V6.5H14.75ZM13.07 1.25V0.25H9.5V1.25V2.25H13.07V1.25ZM14.75 2.93H15.75C15.75 2.65247 15.7508 2.38419 15.7324 2.15893C15.713 1.922 15.6676 1.64609 15.5266 1.36932L14.6356 1.82331L13.7445 2.2773C13.718 2.22514 13.7298 2.20855 13.739 2.32179C13.7492 2.44672 13.75 2.61947 13.75 2.93H14.75ZM13.07 1.25V2.25C13.3805 2.25 13.5533 2.25078 13.6782 2.26098C13.7915 2.27024 13.7749 2.28203 13.7227 2.25545L14.1767 1.36444L14.6307 0.473437C14.3539 0.332414 14.078 0.286984 13.8411 0.267626C13.6158 0.249222 13.3475 0.25 13.07 0.25V1.25ZM14.6356 1.82331L15.5266 1.36932C15.33 0.983591 15.0164 0.669979 14.6307 0.473437L14.1767 1.36444L13.7227 2.25545C13.7321 2.26024 13.7398 2.26789 13.7445 2.2773L14.6356 1.82331ZM13.7 2.3L12.9929 1.59289L7.29289 7.29289L8 8L8.70711 8.70711L14.4071 3.00711L13.7 2.3ZM8.40909 14.75V13.75H5.34091V14.75V15.75H8.40909V14.75ZM1.25 10.6591H2.25V7.59091H1.25H0.25V10.6591H1.25ZM5.34091 14.75V13.75C4.60843 13.75 4.11922 13.7492 3.74303 13.7185C3.37852 13.6887 3.20904 13.6359 3.10004 13.5803L2.64605 14.4713L2.19206 15.3623C2.62999 15.5855 3.09197 15.672 3.58016 15.7118C4.05669 15.7508 4.64143 15.75 5.34091 15.75V14.75ZM1.25 10.6591H0.25C0.25 11.3586 0.249222 11.9433 0.288156 12.4198C0.328043 12.908 0.414531 13.37 0.63767 13.8079L1.52868 13.354L2.41968 12.9C2.36415 12.791 2.3113 12.6215 2.28151 12.257C2.25078 11.8808 2.25 11.3916 2.25 10.6591H1.25ZM2.64605 14.4713L3.10004 13.5803C2.8071 13.4311 2.56894 13.1929 2.41968 12.9L1.52868 13.354L0.63767 13.8079C0.978674 14.4772 1.5228 15.0213 2.19206 15.3623L2.64605 14.4713ZM12.5 10.6591H11.5C11.5 11.3916 11.4992 11.8808 11.4685 12.257C11.4387 12.6215 11.3859 12.791 11.3303 12.9L12.2213 13.354L13.1123 13.8079C13.3355 13.37 13.422 12.908 13.4618 12.4198C13.5008 11.9433 13.5 11.3586 13.5 10.6591H12.5ZM8.40909 14.75V15.75C9.10857 15.75 9.69331 15.7508 10.1698 15.7118C10.658 15.672 11.12 15.5855 11.5579 15.3623L11.104 14.4713L10.65 13.5803C10.541 13.6359 10.3715 13.6887 10.007 13.7185C9.63078 13.7492 9.14157 13.75 8.40909 13.75V14.75ZM12.2213 13.354L11.3303 12.9C11.1811 13.1929 10.9429 13.4311 10.65 13.5803L11.104 14.4713L11.5579 15.3623C12.2272 15.0213 12.7713 14.4772 13.1123 13.8079L12.2213 13.354ZM5.34091 3.5V2.5C4.64143 2.5 4.05669 2.49922 3.58016 2.53816C3.09197 2.57804 2.62999 2.66453 2.19206 2.88767L2.64605 3.77868L3.10004 4.66968C3.20904 4.61415 3.37851 4.5613 3.74303 4.53151C4.11922 4.50078 4.60843 4.5 5.34091 4.5V3.5ZM1.25 7.59091H2.25C2.25 6.85843 2.25078 6.36922 2.28151 5.99303C2.3113 5.62851 2.36415 5.45904 2.41968 5.35004L1.52868 4.89605L0.63767 4.44206C0.414531 4.87999 0.328043 5.34197 0.288156 5.83016C0.249222 6.30669 0.25 6.89143 0.25 7.59091H1.25ZM2.64605 3.77868L2.19206 2.88767C1.5228 3.22867 0.978674 3.7728 0.63767 4.44206L1.52868 4.89605L2.41968 5.35004C2.56894 5.0571 2.8071 4.81894 3.10004 4.66968L2.64605 3.77868ZM5.34091 3.5V4.5H6.875V3.5V2.5H5.34091V3.5ZM12.5 9.125H11.5V10.6591H12.5H13.5V9.125H12.5Z" fill="#004773"/>
</svg>
