<svg width="24" height="24" viewBox="0 0 24 24" fill="none" xmlns="http://www.w3.org/2000/svg">
<path d="M18.4658 7.92773C18.7547 7.92776 19.0291 8.05261 19.2188 8.26953C19.3845 8.45923 19.4726 8.70455 19.4658 8.95508V8.96191L19.4648 8.96875L19.458 9.04883L19.457 9.06152L17.832 21.0615C17.7649 21.5573 17.3413 21.9277 16.8408 21.9277H7.09082C6.59039 21.9277 6.16675 21.5573 6.09961 21.0615L4.47461 9.06152C4.43599 8.77537 4.52332 8.48653 4.71289 8.26953C4.90252 8.05263 5.17699 7.92776 5.46582 7.92773H18.4658ZM7.96484 19.9277H15.9668L17.3213 9.92773H6.61035L7.96484 19.9277ZM10.4658 10.9277C11.0179 10.9278 11.4656 11.3756 11.4658 11.9277V17.9277C11.4656 18.4798 11.0179 18.9277 10.4658 18.9277C9.91369 18.9277 9.46601 18.4798 9.46582 17.9277V11.9277C9.46601 11.3756 9.91369 10.9278 10.4658 10.9277ZM13.4658 10.9277C14.0179 10.9278 14.4656 11.3756 14.4658 11.9277V17.9277C14.4656 18.4798 14.0179 18.9277 13.4658 18.9277C12.9137 18.9277 12.466 18.4798 12.4658 17.9277V11.9277C12.466 11.3756 12.9137 10.9278 13.4658 10.9277ZM19.75 5.07812C20.3021 5.07818 20.7498 5.52603 20.75 6.07812C20.75 6.63038 20.3022 7.07807 19.75 7.07812H4.25C3.69772 7.07812 3.25 6.63041 3.25 6.07812C3.25019 5.526 3.69783 5.07812 4.25 5.07812H19.75ZM13.75 2.07812C14.3021 2.07818 14.7498 2.52603 14.75 3.07812C14.75 3.63038 14.3022 4.07807 13.75 4.07812H10.25C9.69772 4.07812 9.25 3.63041 9.25 3.07812C9.25019 2.526 9.69783 2.07812 10.25 2.07812H13.75Z" fill="currentColor"/>
</svg>
